<?xml version="1.0" encoding="utf-8"?>
<!-- Generator: Adobe Illustrator 19.0.0, SVG Export Plug-In . SVG Version: 6.00 Build 0)  -->
<svg version="1.1" id="Слой_1" xmlns="http://www.w3.org/2000/svg" xmlns:xlink="http://www.w3.org/1999/xlink" x="0px" y="0px"
	 viewBox="0 0 54 42" style="enable-background:new 0 0 54 42;" xml:space="preserve">
<style type="text/css">
	.st0{fill:#FFFFFF;}
</style>
<g id="XMLID_566_">
	<path id="XMLID_567_" class="st0" d="M30.2,13.7c0.5,0,1-0.2,1.5-0.3c0.2,0,0.4-0.1,0.3-0.3c0-0.1,0-0.1-0.1-0.2
		c-0.1-0.1-0.2-0.1-0.3-0.1c-0.3-0.1-0.3-0.7-0.4-0.9c-0.1-0.4-0.2-0.9-0.3-1.3c-0.1-0.5-0.3-0.9-0.3-1.4c0-0.2-0.1-0.4-0.2-0.6
		c-0.1-0.3,0-0.3,0.3-0.3c0.1,0,0.5,0.2,0.4-0.1c0-0.1-0.2-0.2-0.2-0.3c-0.1-0.1-0.2-0.2-0.3-0.3c0-0.1,0-0.2-0.1-0.2
		c0-0.1,0-0.2,0-0.3c0-0.2-0.1-0.4,0.1-0.7c0.3-0.5,1-0.6,1.4-0.2c0.1,0.1,0.2,0.3,0.3,0.5c0.1,0.2,0.2,0.5,0.2,0.7
		c-0.1,0-0.1,0.1,0,0.2c0,0.1,0,0.2,0,0.3c0,0.1,0,0.3,0.1,0.4c0,0.3,0.1,0.6,0.2,0.8c0.1,0.6,0.3,1.2,0.5,1.7
		c0.1,0.1,0.1,0.2,0.2,0.3c0.1,0.1,0,0.1,0.1,0.2c0.1,0.3,0.3,0.5,0.5,0.7c0.2,0.1,0.4,0.2,0.6,0.2c0.1,0.1,0.3,0.1,0.4,0
		c0.1,0,0.2-0.1,0.3-0.1c0-0.1,0.2-0.1,0.2-0.2c0-0.1-0.2-0.2-0.3-0.2c-0.4-0.2-0.6-0.6-0.7-1c-0.1-0.4-0.2-0.8-0.3-1.3
		c-0.1-0.4-0.2-0.9-0.4-1.3c-0.1-0.2-0.2-0.3-0.2-0.5c-0.1-0.2-0.1-0.5-0.2-0.7c-0.1-0.4-0.3-1,0-1.3c0.3-0.4,0.8-0.5,1.2-0.3
		c0.2,0.1,0.2,0.2,0.2,0.3c0.1,0.2,0.2,0.1,0.3,0.2c0.1,0.1,0.2,0.4,0.2,0.5c0.1,0.3,0.1,0.5,0.1,0.8c0.1,0.5,0.2,1.1,0.4,1.6
		c0,0,0-0.1,0-0.1c0.1,0,0.1,0.3,0.1,0.3c0,0.1,0.1,0.3,0.1,0.4c0.1,0.3,0.1,0.5,0.2,0.8c0.1,0.3,0.2,0.6,0.3,0.8
		c0.1,0.1,0.1,0.2,0.2,0.2c0.1,0,0.1,0,0.2,0.1c-0.1,0,0.1,0.1,0.1,0.1c0.1,0,0.2,0.1,0.2,0.1c-0.1-0.1-0.3-0.2,0-0.1
		c0.1,0.1,0.3,0.1,0.4,0.2c0.1,0,0.2,0.1,0.2,0.1c0.1,0,0.1-0.1,0.2-0.1c0.1,0,0.1-0.1,0.2-0.1c0,0,0.1,0,0.1,0
		c0.1,0,0.2-0.2,0.2-0.3c0-0.1,0-0.2-0.1-0.3c-0.2-0.1-0.4-0.4-0.6-0.6c-0.4-0.6-0.6-1.4-0.7-2.1c-0.1-0.7-0.3-1.5-0.6-2.2
		c0,0.1,0.1,0.4,0,0.4c-0.1-0.3,0.1-0.5-0.2-0.7c0,0,0.1,0.4,0,0.3c-0.1,0-0.2-0.3,0-0.3c-0.2-0.5-0.5-0.9-1-1.1
		c-0.2-0.1-0.4-0.2-0.6-0.3c-0.1,0-0.2-0.1-0.3,0c-0.1,0-0.1,0-0.2,0c-0.5-0.1-0.9,0.1-1.2,0.5c-0.1,0.2-0.2,0.4-0.3,0.6
		c-0.1,0.1-0.1,0.2-0.2,0.2c-0.1,0-0.2,0-0.3-0.1c-0.2-0.1-0.4-0.3-0.6-0.4C31.7,5,31.5,4.9,31.3,5c-0.5,0-0.9,0.4-1.2,0.9
		C30,6,29.9,6.2,29.7,6.1c-0.2-0.1-0.3-0.3-0.5-0.4c-0.1,0-0.2-0.1-0.2-0.1c-0.1,0-0.2,0-0.3,0c-0.2,0-0.4,0-0.6,0.1
		C28,5.7,27.8,5.9,27.9,6c0,0.1,0.2,0.1,0.3,0.1c0.1,0,0.2,0.1,0.3,0.1c0.2,0.2,0.3,0.4,0.4,0.7c0.1,0.3,0.2,0.7,0.3,1
		c-0.1,0-0.1,0.2-0.1,0.3c0,0.1,0,0.3,0.1,0.4c0.1,0.1,0.1,0.1,0.2,0.2c0.1,0.2,0.1,0.4,0.1,0.6c0,0.1,0.1,0.3,0.1,0.5
		c0,0.1,0,0.2,0,0.3c0,0.1,0,0.1,0.1,0.1c0,0,0,0,0.1,0c0,0.1,0,0.1,0.1,0.2c0,0.2,0.1,0.4,0.2,0.6c0.1,0.3,0.2,0.6,0.2,0.9
		c-0.1,0-0.1-0.1-0.1-0.2c0,0.2,0.1,0.4,0.2,0.6c0.1,0.2,0.2,0.4,0.2,0.6c0,0.1-0.1,0.2-0.2,0.3C30,13.4,30,13.7,30.2,13.7z
		 M30.3,11.2C30.2,11.2,30.2,11.3,30.3,11.2c-0.1,0,0.3-0.4,0.4-0.4C30.7,10.9,30.3,11.2,30.3,11.2z M30.1,10.9
		c0.1-0.1,0.2-0.2,0.3-0.3c0,0,0,0.1,0,0.1c-0.1,0.1-0.2,0.2-0.3,0.4C30.1,11,30.1,11,30.1,10.9z M30.6,10.3c0,0-0.2,0.2-0.2,0.2
		C30.4,10.4,30.5,10.4,30.6,10.3z M30.6,11.1c0,0,0.1-0.1,0.1-0.1C30.7,11,30.6,11.1,30.6,11.1z M30.4,11.9c0,0,0.1-0.2,0.2-0.2
		c0.1-0.1,0.2-0.2,0.3-0.3C30.9,11.5,30.5,11.8,30.4,11.9z M31,12.1c0,0.1-0.4,0.5-0.5,0.5c0-0.1,0,0,0-0.1c0-0.1,0.1-0.1,0.1-0.1
		C30.8,12.3,30.9,12.2,31,12.1z M30.6,12.9c0.1-0.1,0.2-0.2,0.3-0.3c0,0,0,0.1,0,0.1c-0.1,0.1-0.2,0.3-0.4,0.4
		C30.6,13,30.6,12.9,30.6,12.9z M31,13.3C31,13.3,31,13.3,31,13.3C31.1,13.3,31.1,13.3,31,13.3z M31,13.3
		C30.9,13.3,30.9,13.4,31,13.3C30.9,13.3,30.9,13.3,31,13.3z M31.3,12.9C31.3,12.9,31.3,12.8,31.3,12.9
		C31.3,12.9,31.3,12.9,31.3,12.9z M31.3,12.9c-0.1,0.1-0.1,0.1-0.2,0.2C31.1,13,31.3,12.9,31.3,12.9z M31.2,12.8
		c-0.1,0.1-0.2,0.2-0.3,0.3c-0.1,0.1-0.2,0.2-0.3,0.3C30.7,13.3,31.2,12.8,31.2,12.8z M31.4,13c-0.1,0.1-0.1,0.1-0.2,0.2
		C31.2,13.1,31.3,13,31.4,13C31.4,13,31.4,13,31.4,13z M31.2,12.6C31.1,12.6,31.1,12.7,31.2,12.6C31.1,12.7,31.2,12.6,31.2,12.6z
		 M31.1,12.3c-0.1,0.1-0.1,0.1-0.2,0.2C30.9,12.4,31.1,12.3,31.1,12.3z M30.9,11.8c-0.1,0.1-0.3,0.3-0.5,0.4
		C30.5,12.1,30.8,11.8,30.9,11.8C30.9,11.7,30.9,11.8,30.9,11.8z M30.8,11.3C30.8,11.3,30.8,11.3,30.8,11.3
		C30.8,11.3,30.8,11.3,30.8,11.3z M30.8,11.2c-0.1,0.1-0.1,0.2-0.2,0.2c0,0,0-0.1-0.1-0.1C30.6,11.3,30.6,11.2,30.8,11.2
		C30.7,11.1,30.8,11.1,30.8,11.2z M30.6,10.7C30.6,10.7,30.6,10.7,30.6,10.7C30.6,10.7,30.6,10.6,30.6,10.7z M30.8,10.3
		c0,0.1-0.1-0.1-0.1-0.2C30.7,10,30.8,10.2,30.8,10.3z M30.5,9.8c-0.1,0.2-0.3,0.3-0.5,0.5c0.1-0.3-0.2,0.2,0-0.1
		c0,0,0.1-0.1,0.1-0.1C30.2,9.9,30.3,9.8,30.5,9.8C30.4,9.7,30.4,9.8,30.5,9.8z M29.7,9.3C29.7,9.3,29.7,9.3,29.7,9.3
		c-0.1-0.1,0.4-0.4,0.4-0.5C30.2,8.9,29.8,9.2,29.7,9.3z M29.8,8.8c0,0,0.1-0.1,0.1-0.1c0,0,0,0.1,0,0.1c-0.1,0.1-0.2,0.2-0.3,0.3
		c0-0.1,0-0.1,0-0.1C29.7,8.9,29.7,8.8,29.8,8.8z M29.4,8.2c0,0,0.7-0.7,0.8-0.7C30,7.8,29.7,8,29.4,8.2C29.4,8.3,29.4,8.2,29.4,8.2
		z M29.2,7.3C29.2,7.3,29.3,7.2,29.2,7.3c0.1-0.2,0.2-0.2,0.2-0.3c0.1-0.1,0.2-0.2,0.4-0.3C29.6,6.9,29.5,7.1,29.2,7.3z M29.1,7
		c0-0.1,0.2-0.3,0.3-0.3c0,0,0,0.1,0,0.1C29.3,6.8,29.2,6.9,29.1,7C29.1,7,29.1,7,29.1,7z M31.5,5.9c0,0,0.2-0.2,0.2-0.2
		c0.1-0.1,0.2-0.2,0.3-0.2C31.9,5.6,31.7,5.7,31.5,5.9z M29.2,8.1c0-0.1,0.1-0.2,0.2-0.2c0.1-0.1,0.1-0.1,0.1-0.2
		c0.1-0.2,0.3-0.3,0.5-0.4C29.8,7.5,29.5,7.8,29.2,8.1z M29.5,7.5C29.5,7.4,29.5,7.4,29.5,7.5c0.2-0.3,0.5-0.5,0.7-0.8
		C30,7,29.7,7.2,29.5,7.5C29.5,7.5,29.5,7.5,29.5,7.5z M29.8,6.9c0,0.1-0.2,0.2-0.3,0.3C29.6,7.1,29.7,7,29.8,6.9z M31.7,5.4
		C31.7,5.4,31.7,5.4,31.7,5.4C31.6,5.4,31.7,5.4,31.7,5.4z M30.2,8.1c-0.1,0.1-0.2,0.3-0.4,0.4C30,8.4,30.1,8.3,30.2,8.1z M30.7,8
		C30.7,8,30.6,8,30.7,8C30.6,8,30.7,8,30.7,8z M30.1,9.1c0.1-0.1,0.1-0.1,0.2-0.2C30.2,9,30.1,9.1,30.1,9.1z M30,9.8
		c0,0,0.1-0.1,0.1-0.1c0.1-0.1,0.1-0.1,0.2-0.2c0,0.1-0.4,0.4-0.5,0.5C29.8,9.9,30,9.8,30,9.8z M30.3,9.3
		C30.3,9.3,30.3,9.4,30.3,9.3C30.2,9.4,30.3,9.3,30.3,9.3z M30.3,9.2c0,0-0.2,0.3-0.3,0.3c0,0,0-0.1-0.1-0.1
		C30,9.3,30.2,9.2,30.3,9.2C30.3,9.1,30.3,9.1,30.3,9.2z M30.2,8.7C30.1,8.7,30.1,8.7,30.2,8.7C30.1,8.7,30.2,8.6,30.2,8.7z
		 M30.7,8.1C30.7,8.1,30.7,8.1,30.7,8.1c0,0.1,0.1,0,0.1,0.1C30.8,8.2,30.7,8.2,30.7,8.1C30.6,8.1,30.7,8.1,30.7,8.1z M30.6,7.9
		C30.5,8,30.4,8,30.3,8.1C30.4,8,30.5,7.9,30.6,7.9C30.6,7.8,30.6,7.9,30.6,7.9z M30.4,7.7c-0.1,0.1-0.2,0.2-0.3,0.3
		C30.2,7.8,30.3,7.7,30.4,7.7C30.4,7.6,30.4,7.6,30.4,7.7z M30,7.5c0-0.1,0.2-0.2,0.2-0.3C30.3,7.3,30.1,7.4,30,7.5z M29.7,7.4
		c0.2-0.2,0.3-0.4,0.5-0.5c0,0.1-0.1,0.2-0.2,0.3C29.9,7.2,29.8,7.3,29.7,7.4z M31.3,5.9c0.1-0.1,0.1-0.1,0.2-0.2
		C31.5,5.8,31.3,5.9,31.3,5.9z M32.2,5.5c0,0-0.1,0.1-0.1,0.1C32.1,5.6,32.1,5.5,32.2,5.5z M34.3,4.8c0,0-0.1,0.2-0.2,0.2
		C34.2,5,34.3,4.9,34.3,4.8z M32.8,7.4C32.8,7.4,32.8,7.4,32.8,7.4C32.8,7.4,32.8,7.4,32.8,7.4z M33.2,6.3
		C33.2,6.3,33.2,6.3,33.2,6.3C33.1,6.3,33.2,6.2,33.2,6.3z M33.5,5.2c0,0-0.2,0.3-0.3,0.3C33.4,5.4,33.4,5.3,33.5,5.2z M34.1,4.9
		C34,5,33.9,5.1,33.8,5.2c-0.1,0.1-0.2,0.2-0.3,0.3c0.2-0.2,0.3-0.4,0.5-0.5c0.1-0.1,0.4-0.4,0.5-0.5C34.4,4.6,34.2,4.7,34.1,4.9z
		 M33.7,4.9c0.1-0.1,0.1-0.1,0.2-0.2C33.8,4.8,33.7,4.8,33.7,4.9z M32.2,6.3c0,0,0.1-0.1,0.1-0.1C32.3,6.2,32.2,6.3,32.2,6.3z
		 M32.3,6.4c0-0.1,0.1-0.2,0.2-0.2C32.5,6.1,32.6,6,32.7,6c0.1-0.1,0.2-0.2,0.2-0.2c0.1-0.1,0.2-0.1,0.3-0.2
		c-0.2,0.2-0.3,0.4-0.5,0.5C32.7,6.1,32.3,6.4,32.3,6.4z M32.4,6.6c0.3-0.3,0.6-0.6,1-0.9C33.3,5.9,33.2,6,33,6.2
		C32.8,6.3,32.6,6.5,32.4,6.6C32.4,6.7,32.4,6.6,32.4,6.6z M32.6,7c0,0,0.1-0.1,0.1-0.1C32.7,6.8,32.6,7,32.6,7z M33,6.9
		c0,0,0.1-0.1,0.1-0.1c-0.1,0.1-0.2,0.3-0.4,0.4C32.7,7.1,32.9,7,33,6.9z M33.3,9.3C33.3,9.3,33.3,9.4,33.3,9.3
		C33.3,9.3,33.3,9.3,33.3,9.3z M33.3,8.8c0,0-0.1,0.1-0.1,0.1C33.1,8.9,33.2,8.8,33.3,8.8z M33.5,8.9c0,0,0.1-0.1,0.1-0.1
		c-0.1,0.2-0.3,0.3-0.4,0.5C33.2,9.1,33.4,8.9,33.5,8.9z M33.8,10.7C33.8,10.8,33.8,10.8,33.8,10.7C33.8,10.8,33.8,10.8,33.8,10.7z
		 M34,10.8c0,0,0.1-0.1,0.1-0.1c-0.1,0.1-0.2,0.2-0.3,0.3C33.8,11,34,10.9,34,10.8z M34.7,11.9c-0.1,0-0.1,0-0.1,0
		c0,0,0.1-0.1,0.1-0.1C34.8,11.9,34.8,11.9,34.7,11.9z M34.9,12.1C34.9,12.1,34.9,12.1,34.9,12.1C34.9,12,34.9,12,34.9,12.1
		C35,12,34.9,12.1,34.9,12.1z M34.6,11.6c0,0-0.1,0.1-0.1,0.1c-0.1,0,0,0-0.1,0C34.4,11.7,34.5,11.6,34.6,11.6
		C34.6,11.6,34.6,11.6,34.6,11.6z M34.4,11c-0.1,0.1-0.2,0.2-0.3,0.3c-0.1-0.1,0-0.1,0.1-0.2C34.2,11.1,34.3,11,34.4,11
		C34.3,11,34.3,11,34.4,11z M34.1,10.1c-0.1,0.1-0.3,0.2-0.4,0.4c0-0.1,0.3-0.4,0.4-0.5C34.1,10,34.1,10,34.1,10.1z M34,9.7
		c0,0.1-0.2,0.2-0.2,0.3c-0.1,0.1-0.2,0.2-0.3,0.3c0-0.1,0.1-0.2,0.2-0.3C33.8,9.8,33.9,9.7,34,9.7C34,9.6,34,9.6,34,9.7z M33.5,9.4
		c-0.1,0-0.1,0.1-0.2,0.1c0-0.1,0.4-0.5,0.5-0.6C33.9,9.1,33.6,9.3,33.5,9.4z M33.7,8.3C33.7,8.3,33.7,8.3,33.7,8.3
		C33.7,8.3,33.7,8.3,33.7,8.3z M33.6,8c-0.2,0.2-0.4,0.3-0.6,0.5C33,8.4,33.5,8,33.6,8C33.6,8,33.6,8,33.6,8z M33.5,7.8
		c-0.2,0.2-0.3,0.3-0.5,0.5c0-0.1,0-0.1,0-0.1C33,8.1,33.1,8,33.1,8C33.2,7.9,33.3,7.8,33.5,7.8C33.5,7.7,33.5,7.7,33.5,7.8z
		 M33.3,7.1c-0.1,0.2-0.3,0.3-0.5,0.5C32.8,7.4,33.1,7.2,33.3,7.1C33.3,7.1,33.3,7.1,33.3,7.1z M35,5.2c0.1-0.1,0.5-0.5,0.5-0.5
		c-0.1,0.1-0.2,0.2-0.3,0.3c0,0-0.1,0.1-0.1,0.1C35,5.2,35.1,5.2,35,5.2z M35.5,5.1c0,0-0.2,0.3-0.3,0.3c-0.1-0.1,0-0.1,0.1-0.2
		C35.4,5.2,35.4,5.1,35.5,5.1C35.5,5.1,35.5,5.1,35.5,5.1z M35.6,5.9C35.6,5.8,35.6,5.8,35.6,5.9c0.1-0.2,0.3-0.4,0.5-0.6
		C36.2,5.3,35.7,5.8,35.6,5.9z M36.2,5.4c0.1,0.1-0.1,0.1-0.2,0.2c-0.1,0.1-0.2,0.1-0.2,0.2C36,5.7,36.1,5.5,36.2,5.4z M36,5.3
		c-0.1,0.1-0.2,0.2-0.3,0.3C35.7,5.5,35.9,5.3,36,5.3z M35.4,5.7c-0.1,0,0.2-0.2,0.2-0.3c0.1-0.1,0.2-0.2,0.4-0.3
		C35.8,5.3,35.6,5.5,35.4,5.7z M35.7,6.1C35.8,6,36,5.8,36.2,5.6C36,5.8,35.9,6,35.7,6.1C35.7,6.2,35.7,6.1,35.7,6.1z M36.4,5.9
		c-0.2,0.2-0.4,0.4-0.6,0.6C35.7,6.3,36.3,6,36.4,5.9z M35.9,6.8C36,6.7,36,6.7,36.1,6.6C36.1,6.6,35.9,6.8,35.9,6.8
		C35.9,6.8,35.9,6.8,35.9,6.8z M36,7.1C36,7,36,7,36,7.1C36,7.1,36.1,7.1,36,7.1C36,7.1,36,7.1,36,7.1z M36.2,7.7
		c0.2-0.2,0.4-0.4,0.6-0.5c0,0-0.2,0.2-0.3,0.3C36.4,7.5,36.3,7.7,36.2,7.7C36.2,7.7,36.2,7.7,36.2,7.7z M36.5,7.2
		c0,0.1-0.2,0.2-0.3,0.3C36.3,7.4,36.4,7.3,36.5,7.2z M36.8,7.3c0.1,0.1-0.1,0.2-0.2,0.2c-0.1,0.1-0.2,0.2-0.3,0.3
		C36.5,7.6,36.7,7.4,36.8,7.3z M36.8,7.1C36.8,7.1,36.9,7.1,36.8,7.1C36.9,7.1,36.8,7.1,36.8,7.1z M36.1,7.4c0-0.1,0.3-0.3,0.4-0.4
		C36.4,7.1,36.3,7.3,36.1,7.4z M36.3,8c0.1-0.1,0.3-0.3,0.4-0.4C36.6,7.8,36.4,7.9,36.3,8C36.3,8,36.3,8,36.3,8z M37.1,7.9
		c-0.1,0.1-0.3,0.2-0.4,0.4C36.9,8.2,37,8,37.1,7.9C37.1,7.9,37.1,7.9,37.1,7.9z M37.2,9.2c-0.2,0.2-0.3,0.4-0.5,0.5
		c0-0.1,0-0.1,0-0.1c0-0.1,0.1-0.1,0.2-0.2c0.1-0.1,0.1-0.1,0.2-0.2C37.2,9.2,37.2,9.1,37.2,9.2z M36.7,9.5c0.1-0.1,0.2-0.2,0.3-0.3
		C37,9.2,36.8,9.4,36.7,9.5z M36.6,9.4c0-0.1,0.3-0.3,0.4-0.4C36.9,9.1,36.8,9.3,36.6,9.4z M36.5,8.9c0,0,0.2-0.2,0.2-0.3
		c0.1-0.1,0.2-0.2,0.3-0.3C37.1,8.4,36.6,8.8,36.5,8.9z M36.5,8.2c-0.1,0-0.1,0.1-0.2,0.1c0-0.1,0.4-0.4,0.5-0.5
		C36.8,8,36.6,8.1,36.5,8.2z M36.5,8.7c0,0,0.1-0.1,0.1-0.1C36.6,8.6,36.5,8.7,36.5,8.7C36.5,8.7,36.5,8.7,36.5,8.7z M36.8,10
		c0.1-0.1,0.3-0.2,0.4-0.4C37.1,9.7,37,9.9,36.8,10C36.8,10,36.8,10,36.8,10z M36.8,10.3C36.8,10.3,36.8,10.3,36.8,10.3
		C36.9,10.3,36.9,10.4,36.8,10.3C36.8,10.4,36.8,10.3,36.8,10.3z M37.4,9.8c-0.1,0.2-0.3,0.3-0.4,0.4c0-0.1,0.1-0.2,0.2-0.3
		C37.2,10,37.4,9.8,37.4,9.8z M37.1,10.6C37.1,10.6,37.1,10.5,37.1,10.6C37.1,10.6,37.1,10.6,37.1,10.6z M37.8,10.4
		C37.8,10.4,37.7,10.4,37.8,10.4C37.7,10.4,37.7,10.4,37.8,10.4z M37.4,11C37.5,11,37.5,11,37.4,11C37.5,11,37.5,11,37.4,11z
		 M37.7,11.2c0.1-0.1,0.1-0.1,0.2-0.2C37.9,11,37.8,11.2,37.7,11.2z M37.9,11.2c0.1-0.1,0.1-0.1,0.2-0.2c0.1-0.1,0.1-0.1,0.2,0
		C38.1,11.1,38,11.2,37.9,11.2z M38.4,11.2C38.4,11.2,38.3,11.2,38.4,11.2C38.3,11.1,38.4,11.1,38.4,11.2z M37.8,10.5
		c0,0-0.5,0.4-0.5,0.4C37.5,10.8,37.6,10.6,37.8,10.5C37.8,10.5,37.8,10.5,37.8,10.5z M37.7,10.2c-0.2,0.2-0.4,0.3-0.6,0.5
		C37.1,10.7,37.6,10.2,37.7,10.2C37.7,10.2,37.7,10.2,37.7,10.2z M37.6,10c-0.1,0.1-0.2,0.2-0.3,0.2C37.4,10.2,37.5,10.1,37.6,10
		C37.6,10,37.6,10,37.6,10z M37.2,9.8c0-0.1,0.1-0.1,0.1-0.2C37.3,9.7,37.2,9.8,37.2,9.8z M36.9,9.7c0.1-0.1,0.3-0.3,0.4-0.4
		C37.3,9.4,37,9.6,36.9,9.7z M37.2,8.7C37,8.8,36.9,9,36.7,9.1C36.9,9,37,8.8,37.2,8.7C37.2,8.7,37.2,8.7,37.2,8.7z M37.2,7.7
		c-0.1,0-0.1-0.2,0-0.2C37.2,7.5,37.3,7.7,37.2,7.7z M37.1,7.5c-0.1,0.1-0.3,0.2-0.4,0.3C36.7,7.7,37,7.6,37.1,7.5
		C37.1,7.5,37.1,7.5,37.1,7.5z M36.9,7.3c0-0.1,0-0.1,0.1-0.2C37,7.2,37,7.2,36.9,7.3z M36.8,6.6c-0.2,0.2-0.4,0.4-0.6,0.5
		C36.4,6.9,36.6,6.7,36.8,6.6C36.8,6.6,36.8,6.6,36.8,6.6z M36.8,6.4C36.8,6.4,36.8,6.4,36.8,6.4C36.8,6.4,36.8,6.4,36.8,6.4z
		 M36.7,6.5c0,0,0.1-0.1,0.1-0.1C36.8,6.4,36.7,6.5,36.7,6.5z M36.7,6.3c-0.2,0.2-0.5,0.4-0.7,0.6C36.2,6.7,36.4,6.4,36.7,6.3
		C36.7,6.2,36.7,6.2,36.7,6.3z M36.6,6c-0.1,0.1-0.2,0.2-0.3,0.3C36.3,6.2,36.4,6.1,36.6,6C36.6,6,36.6,6,36.6,6z M36.2,5.9
		c0-0.1,0.2-0.2,0.2-0.2C36.4,5.7,36.2,5.8,36.2,5.9z M36.3,5.1c0.1,0.1,0.2,0.2,0.2,0.3c0,0.1,0,0.1,0,0.1c0,0-0.1-0.1-0.1-0.2
		c-0.1-0.1-0.1-0.2-0.2-0.3C36.2,5,36.3,5.1,36.3,5.1z M35.9,5c-0.1,0.1-0.1,0.1-0.2,0.2C35.7,5.1,35.9,4.9,35.9,5z M35.6,4.8
		c-0.1,0.1-0.1,0.1-0.2,0.2C35.5,4.9,35.6,4.8,35.6,4.8z M35.2,4.6c0,0-0.1,0.1-0.1,0.1c0-0.1,0,0,0-0.1C35.1,4.6,35.1,4.5,35.2,4.6
		z M34.9,4.5C34.8,4.7,34.5,5,34.3,5c0.1-0.1,0.2-0.2,0.3-0.3C34.7,4.7,34.8,4.5,34.9,4.5z M32.3,5.6C32.3,5.6,31.9,6,31.9,6
		c0.1-0.1,0.2-0.2,0.2-0.2c0,0,0.1-0.1,0.1-0.1C32.3,5.6,32.3,5.5,32.3,5.6z M32,5.1c0.1,0,0.2,0.1,0.2,0.2
		C32.2,5.3,31.9,5.1,32,5.1z M31.4,5.4C31.4,5.4,31.4,5.4,31.4,5.4c-0.1,0.1-0.3,0.3-0.4,0.4c0-0.1,0,0,0-0.1c0,0,0.1-0.1,0.1-0.1
		C31.2,5.5,31.3,5.4,31.4,5.4z M30.4,6c-0.3,0.2-0.6,0.5-0.9,0.8c0.1-0.1,0.3-0.3,0.4-0.4c0.1-0.1,0.3-0.2,0.4-0.3
		c0.2-0.2,0.3-0.4,0.6-0.6C30.7,5.7,30.6,5.9,30.4,6z M29.6,6.3c-0.1,0.1-0.2,0.1-0.2,0.2C29.4,6.5,29.5,6.3,29.6,6.3z M29.2,6.1
		c-0.1,0.1-0.2,0.1-0.2,0.2c0-0.1,0-0.1,0.1-0.1C29,6.1,29.1,6,29.2,6.1z M28.7,6.2C28.7,6.1,28.8,6,28.9,6
		C28.8,6,28.8,6.1,28.7,6.2z M29,6.6c0.1-0.1,0.4-0.4,0.4-0.4C29.3,6.4,29.2,6.6,29,6.6C29,6.7,29,6.6,29,6.6z M29.3,8.8
		c0-0.2-0.1-0.4-0.1-0.5C29.3,8.4,29.3,8.6,29.3,8.8c0.2-0.2,0.4-0.4,0.6-0.6c0,0.1-0.4,0.4-0.4,0.5c-0.1,0.1-0.2,0.1-0.1,0.3
		C29.4,9,29.4,8.8,29.3,8.8z M30,10.6c0.2-0.1,0.3-0.3,0.5-0.4C30.5,10.2,30.1,10.6,30,10.6C30,10.7,30,10.6,30,10.6z"/>
</g>
<g id="XMLID_722_">
	<path id="XMLID_492_" class="st0" d="M3.4,18.6c-0.1,0.1-0.2,0.3-0.3,0.4c0,0.1-0.1,0.1-0.1,0.2c0,0.1-0.1,0.1-0.1,0.2
		c-0.1,0.1-0.1,0.1,0,0.2c0.1,0.1,0.3,0.1,0.4,0.2c0-0.2,0.2,0,0.2,0c0,0,0.1-0.1,0.1,0c0,0,0,0,0.1,0.1C3.7,20,3.7,20,3.8,20.1
		c0.1,0.1,0.3,0.2,0.4,0.4c-0.1,0.1-0.1,0.1,0,0.2c0.1,0.1,0.1,0.1,0.3,0.1c0.1,0,0,0,0.1,0c0,0,0,0.1,0.1,0.2c0,0,0.1,0.1,0.1,0.1
		c0,0.1,0,0,0,0.1c0,0.1-0.1,0.1,0,0.2c0,0,0.1,0,0.1,0c0,0,0,0,0.1,0.1c0.2,0.2,0.4,0.3,0.5,0.5c0,0-0.1,0-0.1,0
		c0.1,0.1,0.2,0.2,0.3,0.3c0.1,0.1,0.2,0.2,0.3,0.3c0.2,0.3,0.4,0.5,0.7,0.7c0.2,0.2,0.4,0.4,0.6,0.6c0.2,0.2,0.4,0.3,0.6,0.5
		c0.1,0.2,0.3,0.3,0.5,0.5c0.1,0.1,0.2,0.2,0.3,0.3c0,0,0.1,0.1,0.1,0.1c0,0,0,0,0,0.1c0.2,0.4,0.7,0.6,1,0.9c0,0,0,0,0,0
		c0,0.2,0.3,0.3,0.4,0.4c-0.1,0.1,0,0.1,0.1,0.2c0.1,0.1,0.1,0.1,0.2,0.2c0.1,0.1,0.2,0.2,0.3,0.3c0.2,0.2,0.6,0.3,0.9,0.3
		c0.1,0,0.1-0.1,0.2-0.1c0,0,0.1,0,0.1,0c0.1,0,0.3-0.1,0.4-0.1c0,0,0.1-0.1,0.1-0.1c0.1-0.1,0.1,0,0.1-0.1c0.1,0,0.1-0.1,0.1-0.1
		c0-0.1,0.1-0.1,0.1,0c0,0,0.1,0,0.1-0.1c0,0,0,0,0,0c0.1,0,0.2-0.2,0.1-0.3c0-0.2-0.3-0.1-0.4-0.1c-0.2,0-0.5-0.1-0.7-0.2
		c-0.2-0.1-0.4-0.3-0.7-0.5c-0.1,0-0.1-0.1-0.2-0.1c-0.1-0.1-0.2-0.2-0.3-0.3c-0.1-0.1-0.3-0.2-0.4-0.3c-0.1-0.1-0.2-0.3-0.3-0.4
		c-0.1-0.1-0.3-0.2-0.3-0.4c0-0.1,0-0.1,0-0.1c0,0-0.1,0-0.1,0c-0.2,0-0.3-0.3-0.4-0.5c-0.1-0.2-0.2-0.5-0.4-0.6c0,0,0,0,0,0.1
		c0,0-0.2-0.3-0.2-0.3c-0.1-0.1-0.2-0.2-0.2-0.3c-0.1-0.1-0.2-0.2-0.2-0.3c0,0,0,0,0-0.1c0-0.1,0-0.1-0.1-0.1c0,0,0,0-0.1,0
		c0.1,0,0-0.2-0.1-0.2c0,0,0,0.1,0,0.1c0-0.1-0.1-0.1-0.1-0.2c0,0,0-0.1,0-0.1c0,0,0-0.1-0.1,0c-0.1-0.1-0.1,0-0.1-0.1
		c0-0.1,0.1-0.1,0-0.1c-0.2,0.1-0.1-0.2-0.2-0.3C7.3,21.4,7,21.2,6.8,21c-0.4-0.4-0.7-0.8-1.1-1.1c0,0.1,0.1,0.2,0,0.2
		c-0.1-0.1,0-0.3-0.2-0.3c0,0,0.1,0.2,0,0.2c-0.1,0-0.1-0.2,0-0.2c-0.1-0.1-0.3-0.2-0.4-0.3c-0.1-0.1-0.2-0.3-0.4-0.4
		c-0.1,0-0.1,0-0.1-0.1c0-0.1-0.1-0.2-0.1-0.2c0-0.1,0-0.2,0-0.3c0-0.1,0-0.2-0.1-0.3c-0.1-0.2-0.2-0.1-0.3,0
		c-0.1,0.1-0.3,0.1-0.4,0.2C3.6,18.4,3.5,18.5,3.4,18.6z M12.4,27.1C12.4,27.1,12.3,27.1,12.4,27.1C12.4,27.1,12.4,27.1,12.4,27.1z
		 M3.9,18.8c-0.1,0.2-0.1,0.4-0.2,0.7c0,0-0.1,0-0.1,0C3.7,19.2,3.8,18.9,3.9,18.8z M4.2,18.9c0.1,0-0.2,0.7-0.3,0.8
		c-0.1-0.1,0-0.3,0.1-0.4C4,19.2,4.1,19,4.2,18.9C4.1,18.9,4.2,18.9,4.2,18.9z M4.4,20.3c0,0,0-0.1,0-0.1
		C4.4,20.3,4.4,20.3,4.4,20.3C4.4,20.4,4.4,20.3,4.4,20.3z M5.5,20.1c-0.1,0.3-0.2,0.7-0.3,1c-0.1-0.1-0.1-0.1,0-0.3
		c0-0.1,0.1-0.2,0.1-0.3C5.3,20.6,5.4,20.1,5.5,20.1z M5.9,21.9C5.9,21.9,5.9,21.9,5.9,21.9C5.9,21.9,5.9,21.9,5.9,21.9z M5.6,21.1
		c0,0.1-0.1,0.2-0.1,0.3c-0.1-0.1-0.1-0.1,0-0.2C5.4,21.2,5.5,21.1,5.6,21.1c0-0.2,0-0.4,0.1-0.6c0.1,0.1,0.1,0.1,0,0.2
		C5.6,20.9,5.6,21,5.6,21.1z M5,20.4C5,20.3,5,20.3,5,20.4c0-0.1,0-0.2,0-0.2c0-0.1,0.1-0.2,0.1-0.3C5.2,20,5,20.3,5,20.4z
		 M6.4,22.7C6.3,22.7,6.3,22.7,6.4,22.7C6.3,22.7,6.4,22.7,6.4,22.7z M7,21.8c0.1,0.1-0.1,0.4-0.1,0.5c-0.1,0.2-0.1,0.4-0.1,0.6
		c-0.1-0.1-0.1-0.1,0-0.3c0-0.1,0.1-0.2,0.1-0.2C6.8,22.2,6.9,22,7,21.8z M6.9,23.1C6.9,23.1,6.9,23.2,6.9,23.1
		C6.9,23.2,6.8,23.2,6.9,23.1C6.8,23.1,6.8,23.1,6.9,23.1c0-0.2,0.1-0.3,0.1-0.4c0.1-0.2,0.1-0.4,0.2-0.6c0.1,0.1,0,0.3,0,0.4
		C7.1,22.8,7,23,6.9,23.1C6.9,23.1,6.9,23.1,6.9,23.1z M7.4,23.6C7.4,23.6,7.4,23.5,7.4,23.6C7.4,23.5,7.4,23.6,7.4,23.6z M7.6,24.2
		C7.6,24.1,7.7,24.2,7.6,24.2C7.7,24.3,7.6,24.2,7.6,24.2z M8.4,23.6c-0.1,0.3-0.2,0.6-0.2,0.9c-0.1-0.1-0.1-0.1-0.1-0.2
		c0-0.1,0.1-0.2,0.1-0.2C8.3,23.9,8.4,23.7,8.4,23.6C8.4,23.6,8.4,23.6,8.4,23.6z M8.4,24.7c0.1-0.3,0.2-0.6,0.3-0.8
		c0.1,0.1,0,0.3,0,0.4C8.6,24.4,8.5,24.6,8.4,24.7C8.4,24.7,8.4,24.7,8.4,24.7z M8.9,25.1C8.9,25.2,8.9,25.2,8.9,25.1
		C8.9,25.2,8.9,25.2,8.9,25.1z M8.5,25C8.5,24.9,8.5,25,8.5,25C8.5,25,8.5,25,8.5,25z M9.9,25.2c-0.1,0.3-0.1,0.5-0.2,0.8
		c-0.1-0.1-0.1,0-0.1-0.1c0-0.1,0.1-0.2,0.1-0.2C9.8,25.5,9.9,25.3,9.9,25.2C9.9,25.2,9.9,25.2,9.9,25.2z M9.9,26.2
		c0.1-0.3,0.2-0.5,0.3-0.8c0.1,0.1,0,0.3,0,0.4c0,0.2-0.1,0.3-0.2,0.5C9.9,26.3,9.9,26.3,9.9,26.2z M11.3,27.2
		c0.1-0.2,0.1-0.4,0.2-0.5C11.5,26.7,11.4,27.2,11.3,27.2C11.3,27.3,11.3,27.2,11.3,27.2z M11.7,27.1c0,0,0,0.1,0,0.1
		c0,0.1,0,0.1-0.1,0.1C11.6,27.2,11.6,27.1,11.7,27.1C11.7,27.1,11.7,27.1,11.7,27.1z M12,27.2c0,0,0-0.1,0-0.1
		C12,27.2,12,27.2,12,27.2z M12.2,27.2C12.1,27.2,12.1,27.2,12.2,27.2C12.2,27.2,12.2,27.2,12.2,27.2z M11.9,27
		C11.9,27.1,11.9,27.1,11.9,27C11.9,27,11.9,27,11.9,27z M11.6,26.8c0,0.1,0,0.1-0.1,0.2C11.6,27,11.6,26.8,11.6,26.8z M11.2,26.5
		c-0.1,0.1-0.1,0.3-0.2,0.4c0,0,0,0,0-0.1c0,0,0-0.1,0.1-0.1C11.1,26.7,11.1,26.6,11.2,26.5C11.2,26.5,11.2,26.5,11.2,26.5z
		 M10.9,26.3c-0.1,0.2-0.1,0.4-0.2,0.6c-0.1-0.1,0-0.3,0.1-0.4C10.9,26.5,10.9,26.4,10.9,26.3C10.9,26.3,10.9,26.3,10.9,26.3z
		 M10.7,26.1c0,0-0.1,0-0.1,0C10.6,26,10.6,26.1,10.7,26.1z M10.4,25.8c-0.1,0.2-0.1,0.3-0.2,0.5C10.3,26.1,10.3,26,10.4,25.8
		C10.4,25.8,10.4,25.8,10.4,25.8z M9.6,25c0,0.1-0.1,0.2-0.1,0.4c0-0.1,0-0.1,0-0.2C9.5,25.1,9.6,25,9.6,25
		C9.6,24.9,9.6,24.9,9.6,25z M9.4,24.6c-0.1,0.3-0.1,0.5-0.2,0.8c-0.1-0.1,0.1-0.3,0.1-0.5C9.4,24.9,9.4,24.7,9.4,24.6
		C9.4,24.6,9.4,24.6,9.4,24.6z M9.2,24.4C9.2,24.5,9.2,24.5,9.2,24.4c0,0-0.1,0-0.1,0.1C9.1,24.4,9.1,24.4,9.2,24.4
		C9.2,24.4,9.2,24.4,9.2,24.4z M8.9,24.4c-0.1,0-0.1,0.2-0.1,0.3c0.1-0.2,0.1-0.3,0.2-0.5C8.9,24.2,8.9,24.4,8.9,24.4z M8.2,23.3
		c-0.1,0.1-0.1,0.3-0.2,0.4c0,0,0,0,0-0.1c0,0,0-0.1,0-0.1C8.1,23.4,8.1,23.3,8.2,23.3C8.1,23.2,8.2,23.2,8.2,23.3z M7.9,23
		c-0.1,0.3-0.2,0.6-0.2,0.9c-0.1-0.1,0.1-0.4,0.1-0.5C7.8,23.2,7.8,23.1,7.9,23C7.9,23,7.9,23,7.9,23z M7.7,22.8c0,0,0,0.1,0,0.1
		c0,0-0.1,0-0.1,0C7.6,22.8,7.6,22.7,7.7,22.8C7.7,22.7,7.7,22.7,7.7,22.8z M7.4,22.5c-0.1,0.2-0.1,0.3-0.2,0.5
		C7.3,22.9,7.3,22.7,7.4,22.5C7.4,22.5,7.4,22.5,7.4,22.5z M7.1,22C7.1,22,7.1,22,7.1,22C7,22,7.1,21.9,7.1,22z M6.7,21.5
		c-0.1,0.2-0.1,0.4-0.2,0.5c0,0,0,0,0-0.1c0,0,0.1-0.2,0.1-0.2C6.6,21.7,6.6,21.4,6.7,21.5z M6.4,21.3c-0.1,0.3-0.2,0.6-0.2,1
		c-0.1-0.1,0.1-0.4,0.1-0.6C6.4,21.6,6.4,21.4,6.4,21.3C6.4,21.3,6.4,21.3,6.4,21.3z M6.2,21.1c0,0.1,0,0.1,0,0.2c0,0-0.1,0-0.1,0
		C6.1,21.1,6.1,21.1,6.2,21.1C6.2,21,6.2,21,6.2,21.1z M6,20.5C6.1,20.4,6.1,20.5,6,20.5C6,20.6,6,20.5,6,20.5z M6,20.6
		c0,0.1-0.1,0.3-0.1,0.4c0,0.1-0.1,0.2-0.2,0.4C5.7,21.3,6,20.6,6,20.6z M5.6,20.2c0,0.1-0.1,0.2-0.1,0.2
		C5.6,20.4,5.6,20.2,5.6,20.2C5.6,20.2,5.6,20.2,5.6,20.2z M5.2,19.6c0,0,0.1,0.1,0.1,0.1c0,0.1-0.2-0.1-0.2-0.1
		C5.1,19.6,5.2,19.6,5.2,19.6z M4.9,19.7c-0.1,0.2-0.1,0.4-0.2,0.6c0,0.1-0.2,0.5-0.1,0.5c-0.1,0-0.2-0.2-0.2-0.3
		c0.1,0.1,0.1,0.1,0.2,0.2c0-0.1,0-0.2,0.1-0.2c0,0,0.1-0.4,0.1-0.5C4.8,19.9,4.8,19.8,4.9,19.7C4.9,19.6,4.9,19.7,4.9,19.7z
		 M4.7,19.4c0,0,0,0.1,0,0.1c0,0-0.1,0-0.1,0C4.6,19.5,4.6,19.4,4.7,19.4C4.7,19.4,4.7,19.4,4.7,19.4z M4.4,19.2
		c0,0.1,0,0.2-0.1,0.3c0,0.1-0.1,0.2-0.1,0.3C4.3,19.5,4.3,19.3,4.4,19.2C4.4,19.1,4.4,19.1,4.4,19.2z M4.1,18.5
		c0,0.1-0.1,0.2-0.1,0.3C4.1,18.7,4.1,18.5,4.1,18.5z M3.8,18.5C3.5,18.5,4.1,18.4,3.8,18.5L3.8,18.5z"/>
</g>
<g id="XMLID_675_">
	<path id="XMLID_491_" class="st0" d="M8.3,16.6c0.1,0,0.1-0.1,0-0.2c0,0,0.1,0,0.1,0c-0.1,0-0.2,0-0.2,0c0-0.1,0.1-0.1,0.1-0.2
		c0-0.1,0,0-0.1,0c0.1-0.1,0-0.2,0-0.3c0,0,0,0-0.1,0.1c0,0,0.1-0.1,0-0.1c0,0-0.1,0.1-0.1,0.1c0,0,0-0.1,0-0.2c0,0,0,0-0.1,0
		c0,0,0.1-0.1,0.1-0.1c0,0,0,0-0.1,0.1c0,0,0-0.1,0-0.1c0-0.1,0-0.1-0.1-0.1c-0.1,0-0.3-0.1-0.4,0c0,0,0,0.1,0,0.1c0,0,0-0.1,0-0.1
		c0,0,0,0.2,0,0.2c0,0,0-0.1,0-0.1c0,0-0.1,0.1-0.2,0.1c0,0,0,0.1,0,0.1c-0.1-0.1-0.2-0.1-0.2,0.1c0,0-0.2-0.1-0.2-0.1
		c0,0,0,0.2,0,0.2c-0.1,0-0.1,0-0.2-0.1c0,0,0,0,0,0.1c0,0-0.1,0-0.1,0c0,0,0.1,0.1,0.1,0.2c0,0.1,0,0-0.1,0c0,0-0.1,0-0.1,0
		c0.1,0,0.1,0.1,0.2,0.1c0,0-0.1,0-0.1,0.1c0,0-0.2,0-0.2,0c0,0,0.1,0,0.1,0c0,0,0.2,0.1-0.1,0.1c0,0.1,0.1,0.1,0.1,0.1
		c0,0,0,0.1,0,0.1c0,0.1,0,0.1,0.1,0.1c0,0,0.1,0,0.1,0.1c0,0,0,0,0,0.1c0,0,0.1,0,0.1,0c0,0,0,0.1,0,0.1c0.1,0,0.2,0,0.2,0
		c0,0.1,0,0.1,0,0.1c0,0,0.1-0.1,0.1-0.1c0.1,0,0-0.1,0.1,0c0,0,0,0,0.1,0c0,0.1,0.1,0.1,0.2,0.1c0.1,0,0.1-0.1,0.1-0.2
		C7.9,17.2,7.9,17,7.9,17c0,0,0.1,0,0.1,0c0.1,0.1,0.1,0,0.2-0.1c0.1-0.1,0.1,0,0.1-0.1c0,0,0-0.1,0-0.1C8.3,16.7,8.3,16.6,8.3,16.6
		z M8,16.4C8.1,16.4,8,16.4,8,16.4c0.1,0.1,0,0.1-0.1,0.1c0.1,0,0,0,0,0.1c-0.1,0-0.1,0,0,0.1c-0.1,0,0,0-0.1,0
		C7.8,16.7,8,16.4,8,16.4C8,16.4,8,16.4,8,16.4z M7.7,15.7C7.7,15.7,7.7,15.7,7.7,15.7C7.7,15.8,7.6,15.8,7.7,15.7z M7.5,15.9
		c0,0,0-0.1,0-0.1C7.6,15.9,7.5,15.9,7.5,15.9z M7.2,16.3c0,0.1-0.1,0.2-0.1,0.3C7.1,16.5,7.1,16.4,7.2,16.3z M7.5,15.7
		C7.5,15.7,7.5,15.7,7.5,15.7C7.5,15.7,7.5,15.8,7.5,15.7C7.4,15.8,7.5,15.7,7.5,15.7z M6.8,16.4C6.8,16.4,6.8,16.3,6.8,16.4
		C6.9,16.3,6.9,16.4,6.8,16.4z M7.1,15.9C7,15.7,7.2,15.9,7.1,15.9L7.1,15.9z M6.9,16.4C6.9,16.3,6.9,16.3,6.9,16.4
		C7,16.4,7,16.4,6.9,16.4z M7,17C7,17,6.9,17.1,7,17C7,17,7,17,7,17z M7.1,16.9c0.1-0.3,0.2-0.7,0.4-1c0.1,0-0.1,0.4-0.1,0.5
		C7.3,16.5,7.2,16.9,7.1,16.9z M7.2,17.1C7.2,17.1,7.2,17.1,7.2,17.1C7.1,17.1,7.2,17.1,7.2,17.1z"/>
	<path id="XMLID_490_" class="st0" d="M13.8,25.1c0.1,0,0.2-0.1,0.3-0.2c0.1,0.1,0.2,0,0.3-0.1c0.1-0.1,0.1-0.1,0.2-0.2
		c0.1-0.1,0.1-0.1,0.2,0c0-0.1-0.1-0.1,0-0.2c0.1-0.1,0.2-0.2,0.1-0.3c-0.1,0-0.1,0-0.2,0l0,0c0,0-0.1,0-0.1-0.1c0,0,0,0-0.1,0
		c-0.1,0-0.2-0.1-0.3-0.1c-0.1,0-0.2,0-0.2,0c0,0-0.1-0.1-0.1-0.2c0-0.1-0.1-0.1-0.1-0.2c-0.1-0.1-0.2-0.2-0.3-0.3
		c-0.1-0.1-0.1-0.2-0.2-0.3c-0.1-0.1-0.2-0.2-0.2-0.3c0-0.1,0.1-0.1,0-0.1c-0.1,0-0.1,0.1-0.3,0c-0.1-0.1-0.1-0.2-0.2-0.3
		c-0.1-0.2-0.1-0.4-0.3-0.5c0,0,0,0,0,0.1c0,0-0.2-0.4-0.2-0.4c-0.1-0.1-0.2-0.3-0.2-0.4c0,0-0.1,0.1-0.1,0c0.1,0,0-0.1,0-0.1
		c0,0,0,0.1,0,0.1c-0.1-0.1,0-0.2,0-0.3c-0.2,0.1-0.1-0.1-0.1-0.2c-0.2,0.1-0.1-0.1-0.1-0.2c0-0.2-0.2-0.3-0.4-0.5
		c-0.3-0.3-0.5-0.7-0.8-1c0,0.1,0,0.1,0,0.2c-0.1-0.1,0.1-0.3-0.1-0.3c0,0,0,0.2,0,0.2c-0.1,0,0-0.2,0-0.2c-0.1-0.1-0.2-0.2-0.3-0.4
		c0-0.1-0.1-0.2-0.2-0.2c0,0-0.1,0-0.1,0c0.1-0.1,0.2-0.4,0.1-0.6c0-0.1-0.1-0.2-0.2-0.2c-0.1,0-0.1,0.2-0.2,0.2
		c-0.1,0-0.2,0-0.3,0.1c-0.1,0-0.2,0.1-0.3,0.1c-0.1,0.1-0.1,0.2-0.2,0.3c-0.1,0.1-0.1,0.2-0.2,0.3c-0.1,0.1-0.2,0-0.3,0.1
		c-0.1,0,0,0-0.1,0.1c0,0.2,0,0.3,0.1,0.4c0,0,0.2,0.1,0.2,0.1c0,0,0.1-0.1,0.2-0.1c0,0,0.1,0,0.2,0c0.1,0,0.2,0.2,0.3,0.3
		c-0.1,0-0.1,0.1-0.1,0.2c0,0.1,0.2,0.1,0.3,0c0,0.1,0,0.1,0.1,0.2c0,0,0.1,0.1,0.1,0.1c0,0.1-0.1,0.1,0,0.2c0,0,0.1,0,0.1,0
		c0,0,0,0,0,0c0,0,0.1,0.1,0.1,0.1c0.1,0.1,0.3,0.2,0.3,0.3c0,0-0.1,0-0.1,0c0.1,0.1,0.2,0.2,0.3,0.3c0.1,0.1,0.2,0.3,0.3,0.5
		c0.2,0.3,0.5,0.5,0.7,0.8c0.1,0.1,0.1,0.2,0.2,0.3c0.1,0.1,0.2,0.2,0.2,0.3c0.1,0.1,0.2,0.2,0.3,0.3c0.1,0.1,0.2,0.2,0.3,0.3
		c-0.1,0.1,0.4,0.5,0.5,0.6c0.1,0.1,0.1,0.1,0.2,0.2c0.1,0.1,0.1,0.1,0.1,0.2c0.1,0.1,0.2,0.2,0.2,0.3c-0.1,0.1,0,0.1,0,0.1
		c0,0.1,0.1,0.1,0.1,0.2c0,0.1,0,0.1,0,0.2c0,0.1,0,0.2,0,0.3c0,0.1-0.1,0.3,0,0.4c0.2,0.2,0.3-0.1,0.4,0c0-0.1,0-0.1,0-0.2
		c0,0.1,0.2-0.1,0.2-0.1c0,0,0.1,0,0.1-0.1C13.8,25.2,13.8,25.1,13.8,25.1z M13.3,24.5c0.1,0,0.1-0.2,0.1-0.3
		c0.1-0.1,0.1-0.2,0.2-0.4c0,0.1,0.1,0.1,0,0.2c0,0.1-0.1,0.1-0.1,0.2C13.4,24.3,13.4,24.5,13.3,24.5C13.3,24.6,13.3,24.6,13.3,24.5
		z M13.7,24.6c0,0.1,0,0.2-0.1,0.2C13.6,24.7,13.7,24.7,13.7,24.6z M12.6,23.4c0,0.1-0.1,0.2-0.1,0.3C12.5,23.7,12.6,23.4,12.6,23.4
		z M12.3,22.8c0,0.1-0.1,0.3-0.1,0.4C12.1,23.2,12.3,22.9,12.3,22.8z M11.3,21.6c0,0.1-0.1,0.2-0.1,0.3
		C11.1,21.9,11.3,21.6,11.3,21.6z M11,21.1c-0.1,0.2-0.1,0.3-0.2,0.5C10.8,21.5,11,21.2,11,21.1z M11,20.2c0,0,0,0.1,0,0.2
		c0,0.1-0.1,0.2-0.1,0.3c-0.1,0.2-0.2,0.3-0.3,0.5c-0.1-0.1,0.1-0.4,0.2-0.5C10.8,20.5,10.8,20.3,11,20.2C10.9,20.2,11,20.2,11,20.2
		z M10.5,19.3C10.5,19.3,10.4,19.3,10.5,19.3C10.5,19.3,10.5,19.3,10.5,19.3z M9.9,19.8c0,0.1-0.1,0.2-0.1,0.3
		C9.8,20.1,9.9,19.8,9.9,19.8z M9.6,19.3c0,0.1-0.1,0.3-0.1,0.4C9.4,19.6,9.6,19.4,9.6,19.3z M10.1,19C10.1,19,10.1,19,10.1,19
		C10.1,19,10.1,19,10.1,19z M9.9,18.5c0.1,0.2,0,0.1-0.1,0C9.9,18.5,9.9,18.5,9.9,18.5z M8.9,17.7C8.7,17.7,9.2,17.7,8.9,17.7
		L8.9,17.7z M8.5,18.5C8.5,18.5,8.5,18.5,8.5,18.5c0-0.1,0-0.2,0.1-0.2C8.6,18.3,8.6,18.5,8.5,18.5z M8.9,19.2
		c0-0.2,0.1-0.4,0.2-0.5c0.1-0.2,0.2-0.4,0.2-0.5c0.1,0.1,0.1,0.1,0,0.2c0,0.1-0.1,0.2-0.2,0.3C9.1,18.8,9.1,18.9,9,19
		C9,19.1,8.9,19.2,8.9,19.2c0,0.1,0.1,0.2,0.2,0.2C9,19.5,8.9,19.3,8.9,19.2z M9.1,19.4c0.1-0.3,0.3-0.6,0.4-1
		c0.1,0.1,0.1,0.1,0,0.2c0,0.1-0.1,0.2-0.1,0.3C9.3,19.1,9.3,19.2,9.1,19.4z M9.6,19.9c0.1-0.3,0.2-0.5,0.3-0.8
		C9.9,19.4,9.8,19.7,9.6,19.9C9.7,20,9.6,19.9,9.6,19.9z M9.9,20.2c0.1-0.3,0.2-0.6,0.4-0.9C10.4,19.4,10,20.1,9.9,20.2
		C9.9,20.2,9.9,20.2,9.9,20.2z M10.2,20.7C10.2,20.6,10.2,20.6,10.2,20.7C10.2,20.7,10.2,20.7,10.2,20.7z M10.3,21
		c-0.1-0.1,0.3-0.9,0.4-1c0.1,0.2,0,0.3-0.1,0.5C10.5,20.6,10.3,21,10.3,21z M11,21.7c0-0.1,0.3-0.7,0.3-0.7
		C11.2,21.2,11.2,21.5,11,21.7C11,21.7,11,21.7,11,21.7z M11.1,22.2C11.1,22.2,11.2,22.2,11.1,22.2C11.2,22.3,11.1,22.3,11.1,22.2z
		 M11.2,22c0.1-0.3,0.2-0.5,0.3-0.8C11.7,21.4,11.3,21.9,11.2,22C11.2,22.1,11.2,22,11.2,22z M11.6,22.4
		C11.6,22.4,11.6,22.4,11.6,22.4C11.6,22.4,11.6,22.4,11.6,22.4z M11.6,22.6c0.1-0.3,0.3-0.6,0.4-0.8c0,0.1,0,0.1,0,0.2
		c0,0.1-0.1,0.2-0.1,0.3C11.9,22.4,11.8,22.5,11.6,22.6C11.7,22.6,11.7,22.6,11.6,22.6z M11.8,22.9C11.8,22.9,11.7,22.9,11.8,22.9
		C11.7,22.9,11.8,22.9,11.8,22.9z M11.9,22.9c0.1-0.3,0.2-0.6,0.4-0.8c0.1,0.1,0.1,0.1,0,0.2c0,0.1-0.1,0.2-0.1,0.3
		C12,22.6,12,22.8,11.9,22.9C11.9,22.9,11.9,22.9,11.9,22.9z M12.4,23.4c0.1-0.2,0.2-0.5,0.3-0.7C12.6,22.9,12.5,23.2,12.4,23.4
		C12.4,23.4,12.4,23.4,12.4,23.4z M12.6,23.8c0.1-0.3,0.2-0.6,0.4-0.9C13,23.2,12.8,23.6,12.6,23.8C12.6,23.8,12.6,23.8,12.6,23.8z
		 M12.9,24.2C12.9,24.2,12.9,24.2,12.9,24.2C12.9,24.2,12.9,24.2,12.9,24.2z M13,24.3c0.1-0.3,0.2-0.5,0.4-0.8
		C13.5,23.7,13.2,24.1,13,24.3C13.1,24.3,13.1,24.3,13,24.3z"/>
</g>
<g id="XMLID_495_">
	<path id="XMLID_496_" class="st0" d="M43.3,11.6c0,0,0.1-0.1,0.2-0.1c0,0,0.1,0.1,0.1,0.1c0.1,0,0.3-0.1,0.4-0.1
		c0.3-0.2,0.6-0.4,0.9-0.6c0.2-0.2,0.3-0.4,0.3-0.7c0-0.2,0-0.3-0.1-0.5c0-0.1-0.1-0.2-0.1-0.4c-0.1-0.3-0.5-0.5-0.8-0.4
		c-0.1,0-0.1,0.1-0.1,0.2c0,0.1,0,0.1,0,0.2c0,0.1,0,0.1,0,0.2c0,0.2,0,0.3,0,0.4c0,0.1,0,0.2,0,0.2c0,0-0.1,0.1-0.1,0.1
		c-0.1,0.1,0,0.1,0.1,0.2c0.1,0.1,0,0.1,0,0.2c0,0,0,0,0,0c0,0.1-0.1,0.1-0.1,0.2c-0.1,0.1-0.2,0.2-0.3,0.3
		c-0.2,0.1-0.4,0.3-0.6,0.3c-0.2,0.1-0.5,0-0.7-0.1c-0.1,0-0.2-0.1-0.3-0.2c0,0-0.1-0.1-0.1-0.1c0,0,0,0.1-0.1,0
		c0.1,0,0-0.2-0.1-0.2c0,0,0,0.1,0,0.1c-0.1-0.1-0.1-0.2-0.1-0.3c-0.1-0.1,0,0-0.1-0.1c0,0-0.1,0-0.1-0.1c0-0.1,0.1-0.1,0-0.1
		c0,0-0.1,0-0.1,0c0,0,0-0.1,0-0.1c0-0.5-0.5-1-0.5-1.5c0.2,0,0.4,0.1,0.6,0.1c-0.1,0-0.2-0.1-0.2-0.2c0.1,0,0.3,0.3,0.4,0.1
		c-0.1,0-0.2-0.1-0.2-0.1c0.1-0.1,0.2,0.1,0.2,0.1c0.3,0,0.5-0.1,0.8-0.2c0.1,0,0.3-0.1,0.4-0.2c0.1,0,0-0.1,0.1-0.1
		c0-0.1,0.1-0.1,0.1-0.1c0.3-0.1,0.5-0.3,0.7-0.6c0.1-0.1,0.1-0.2,0.1-0.3c0-0.1,0.1-0.1,0.2-0.2c0.1-0.1,0.1-0.1,0.1-0.2
		c0.1-0.3,0.1-0.6,0.1-0.9c0-0.1,0-0.2-0.1-0.3c0-0.1-0.1-0.1-0.1-0.2c0-0.1,0-0.3,0-0.5c0,0,0-0.1,0-0.1c0,0-0.1,0-0.1,0
		c0-0.1-0.1-0.2-0.1-0.2c-0.1-0.1,0-0.1-0.1-0.1c-0.1,0-0.1-0.1-0.1-0.1c-0.3-0.2-0.6-0.4-0.9-0.5c0.1-0.1,0-0.1,0-0.2
		c-0.1-0.1-0.2-0.1-0.3,0c0,0-0.1,0.1-0.1,0.1c0,0-0.1-0.1-0.2-0.1c-0.1,0-0.2,0-0.3,0c-0.1,0-0.1,0-0.1,0c-0.1,0-0.1-0.1-0.2-0.1
		c-0.1,0-0.1,0.1-0.1,0.1c-0.3,0.1-0.5,0.2-0.8,0.3c0,0,0.1-0.1,0.1-0.1c-0.3,0.1-0.5,0.3-0.7,0.5c-0.2,0.1-0.3,0.3-0.5,0.5
		c-0.2,0.3-0.3,0.6-0.4,0.9C39,5.7,39,5.9,39,6c0,0.1-0.1,0.3-0.1,0.4C38.9,6.7,39,7,39,7.3c0,0.3,0.1,0.5,0.2,0.8
		c0,0.1,0.1,0.3,0.1,0.4c0,0.1,0.1,0.1,0.1,0.2c0,0.1,0,0.1,0,0.1c0,0.1,0,0.2,0,0.2c0,0.1,0,0.1,0,0.1c0,0.1,0.1,0.1,0.1,0.2
		c0.1,0.1,0.1,0.3,0.2,0.4c0.1,0.1,0.2,0.3,0.2,0.4c0.1,0.1,0.1,0.3,0.2,0.4c0.1,0.1,0.1,0.1,0.2,0.2c-0.1,0.1,0,0.1,0,0.2
		c0,0.1,0.1,0.1,0.1,0.2c0.1,0.1,0.3,0.2,0.4,0.3c0.3,0.2,0.6,0.3,0.9,0.4c0.1,0,0.2,0,0.3,0c0,0,0.1,0,0.1,0c0.1,0,0.1,0,0.2,0
		c0.1,0,0.2,0,0.3-0.1C43,11.6,43.2,11.7,43.3,11.6z M41.2,10.7c0,0-0.1,0.1-0.1,0.1C41.1,10.8,41.2,10.7,41.2,10.7z M40.3,9.8
		c-0.1,0.1-0.1,0.1-0.2,0.2C40.1,10,40.3,9.9,40.3,9.8z M40.7,7.8c0,0-0.1-0.1-0.1-0.2c0,0,0,0,0,0c0,0,0-0.1,0-0.1
		c0-0.1,0-0.1,0-0.2c0-0.1-0.1-0.1-0.1-0.2c0-0.1,0-0.2,0-0.2c0,0-0.1-0.1-0.1-0.2c0,0,0.1,0,0.1-0.1c-0.1,0-0.1,0-0.2,0
		c-0.1,0-0.1-0.1,0-0.2c0-0.1,0.1-0.3,0-0.4c0,0,0,0,0,0c0,0,0-0.1,0-0.2c0-0.1,0-0.2,0.1-0.3c0,0-0.1,0-0.1,0c0,0,0.1,0,0.1,0
		c0,0-0.1,0-0.1,0c0-0.1,0.1-0.1,0.1-0.1c-0.2,0,0.1-0.1,0.1-0.1c-0.1,0,0,0,0-0.1c0.1-0.1,0.1-0.1,0.1-0.2c0-0.2,0.2-0.4,0.3-0.6
		c-0.1,0-0.1,0-0.1-0.1c0-0.1,0.1,0.1,0.2,0c0.1,0-0.1-0.1-0.1-0.1c0-0.1,0.1,0.1,0.1,0.1c0.1,0,0.1-0.1,0.2-0.2c0,0,0.1,0,0.1,0
		c0,0,0-0.1,0-0.1c0,0,0,0,0,0c0,0,0.1,0,0.1,0.1c0.1,0,0.2,0,0.3-0.1c0,0.1,0.1,0.1,0.1,0.2c0.1,0.1,0.1,0.1,0.2,0.1
		c0.1,0,0.1,0,0.2,0c0.1,0,0.1,0,0.1,0.1c0,0.1,0,0.1,0,0.2c0.1-0.1,0.1,0.1,0.1,0.1c0.2-0.1,0.3,0.1,0.4,0.3c0,0-0.2,0.1-0.1,0.2
		c0,0,0.2,0,0.2,0c0,0.1,0,0.2,0,0.2c0,0-0.1,0.1-0.1,0.1c0,0.1,0.1,0,0.1,0.1c0.1,0,0.2,0.2,0.2,0.3c0,0-0.1,0-0.1,0
		c0,0.1,0.1,0.1,0.1,0.2c0,0.1,0,0.2,0,0.3c0,0.2,0.1,0.4,0.1,0.6c0,0.1,0,0.1,0,0.2c0,0,0,0.1,0,0.1c0,0,0,0-0.1,0
		c-0.1,0.1-0.2,0.3-0.2,0.5c-0.1-0.1-0.3,0.2-0.3,0.3C42.5,8,42.5,8,42.4,8c-0.1,0-0.2,0.1-0.2,0.1C42.2,8,42.1,8,42,8
		c-0.1,0-0.1,0-0.2-0.1c-0.1,0-0.1-0.1-0.2-0.1c-0.1,0-0.1,0-0.2,0c0.1-0.1-0.2-0.1-0.3-0.1c0,0,0-0.1-0.1-0.1C41,7.6,41,7.7,41,7.7
		c-0.1,0-0.1,0.1-0.1,0.2C40.8,7.9,40.8,7.9,40.7,7.8z M39.8,7.9C39.7,8,39.6,8,39.5,8.1C39.6,8,39.7,8,39.8,7.9z M39.4,7.1
		c0.1,0,0.2-0.2,0.3-0.3c0.1-0.1,0.2-0.2,0.3-0.3c0.1,0.1,0,0.1-0.1,0.2c-0.1,0.1-0.1,0.1-0.2,0.2c-0.1,0.1-0.3,0.2-0.4,0.4
		C39.3,7.2,39.3,7.2,39.4,7.1z M40.1,6.8C40.2,6.8,40.1,6.9,40.1,6.8C40.1,6.9,40.1,6.8,40.1,6.8z M39.7,4.8
		c0.1-0.1,0.2-0.2,0.3-0.2c-0.1,0.1-0.1,0.1-0.2,0.2C39.8,4.8,39.7,4.9,39.7,4.8z M40.9,4.2C40.8,4.3,40.8,4.2,40.9,4.2
		C40.9,4.2,40.9,4.2,40.9,4.2z M40.2,4.5c0,0-0.1,0.1-0.1,0.1C40.1,4.6,40.1,4.6,40.2,4.5z M40.4,4.4c0,0-0.1,0.1-0.1,0.1
		C40.3,4.4,40.3,4.4,40.4,4.4z M39.7,4.8C39.7,4.8,39.7,4.8,39.7,4.8C39.7,4.8,39.7,4.8,39.7,4.8z M40,4.9C40,4.9,40,4.9,40,4.9
		c0,0,0-0.1,0-0.1C40.1,4.9,40.1,4.9,40,4.9C40,5,40,4.9,40,4.9z M40.5,4.5C40.4,4.5,40.5,4.5,40.5,4.5C40.5,4.5,40.5,4.6,40.5,4.5z
		 M42.4,3.8C42.4,3.9,42.4,3.9,42.4,3.8C42.3,3.9,42.4,3.8,42.4,3.8z M42.3,3.9c0,0-0.1,0.1-0.1,0.1C42.2,4,42.3,3.9,42.3,3.9z
		 M41.8,4.2C41.8,4.2,41.8,4.2,41.8,4.2C41.7,4.1,41.7,4.1,41.8,4.2z M41.7,3.9C41.7,3.9,41.7,3.9,41.7,3.9
		C41.7,3.9,41.8,3.9,41.7,3.9C41.8,3.9,41.8,3.9,41.7,3.9z M42.8,4.4C42.8,4.4,42.8,4.5,42.8,4.4C42.7,4.5,42.8,4.4,42.8,4.4z
		 M43.1,5.1c0.1-0.1,0.1-0.1,0.2-0.2C43.3,4.9,43.1,5,43.1,5.1z M43.6,4.8c0.1,0.1,0,0.2-0.1,0.2c-0.1,0.1-0.2,0.1-0.3,0.2
		C43.1,5.1,43.5,4.9,43.6,4.8z M43.1,4.8C43.1,4.9,43,4.9,43,5c-0.1,0.1-0.1,0,0,0.1c-0.1,0-0.1-0.1-0.1-0.1c0,0,0.5-0.4,0.5-0.5
		C43.4,4.6,43.2,4.8,43.1,4.8z M43.2,4.4c-0.1,0.1-0.2,0.2-0.3,0.3C42.9,4.7,43.2,4.4,43.2,4.4z M42.5,4.3
		C42.5,4.3,42.6,4.2,42.5,4.3C42.6,4.2,42.6,4.3,42.5,4.3z M43.5,6c0.1-0.1,0.3-0.3,0.4-0.4c0,0.1,0,0.1-0.1,0.2
		C43.7,5.9,43.7,5.9,43.5,6c0.1,0-0.2,0.2-0.2,0.1C43.3,6.2,43.4,6.1,43.5,6z M41.3,8.4C41.3,8.4,41.4,8.3,41.3,8.4
		C41.4,8.3,41.3,8.4,41.3,8.4z M41.3,8.2C41.3,8.2,41.3,8.2,41.3,8.2C41.3,8.2,41.3,8.2,41.3,8.2z M41.1,8.2
		C41.1,8.2,41.2,8.2,41.1,8.2C41.2,8.2,41.1,8.2,41.1,8.2z M40.8,8.5C40.8,8.4,40.9,8.5,40.8,8.5C40.9,8.5,40.9,8.6,40.8,8.5z
		 M41.1,8.3c0,0,0.1-0.1,0.1-0.1C41.2,8.3,41.2,8.3,41.1,8.3z M43.5,6.6C43.5,6.6,43.5,6.6,43.5,6.6c-0.1,0,0.2-0.3,0.3-0.3
		C43.7,6.4,43.6,6.5,43.5,6.6z M43.2,7.1C43.2,7.1,43.2,7,43.2,7.1C43.2,7,43.2,7,43.2,7.1z M43.9,6.5c0,0.2-0.4,0.4-0.5,0.5
		C43.5,6.8,43.7,6.6,43.9,6.5z M43.1,7.5C43.1,7.5,43.1,7.5,43.1,7.5C43.1,7.5,43.1,7.5,43.1,7.5z M43.7,6.9c0,0,0.1-0.1,0.1-0.1
		C43.8,6.9,43.7,7,43.6,7C43.6,7,43.7,6.9,43.7,6.9z M43,8c0.1-0.1,0.1-0.1,0.2-0.2C43.1,7.9,43,8,42.9,8.1C42.9,8.1,43,8,43,8z
		 M43.3,7.7C43.3,7.7,43.3,7.7,43.3,7.7c0,0,0.1-0.1,0.1-0.1C43.4,7.6,43.4,7.7,43.3,7.7z M43.7,7.2c-0.2,0.2-0.4,0.3-0.6,0.5
		c0.2-0.2,0.4-0.5,0.7-0.7C43.8,7,43.8,7.1,43.7,7.2z M41.4,8.5c0-0.1,0-0.1,0.1-0.2c0,0,0.1-0.1,0.1-0.1
		C41.6,8.3,41.4,8.5,41.4,8.5C41.4,8.5,41.4,8.5,41.4,8.5z M41.7,8.4C41.7,8.4,41.7,8.4,41.7,8.4c0-0.1,0-0.1,0.2-0.1
		C41.8,8.3,41.8,8.4,41.7,8.4z M42.1,8.4C42.1,8.4,42.1,8.4,42.1,8.4c0-0.1,0.1-0.1,0.2-0.2c0.1-0.1,0.1-0.1,0.2-0.1
		C42.4,8.2,42.3,8.4,42.1,8.4z M42,8.7c-0.1-0.1,0.2-0.1,0.3-0.1C42.3,8.6,42.1,8.6,42,8.7z M44.1,6.8C44.2,6.7,44.2,6.8,44.1,6.8
		C44.1,6.9,44,6.9,44.1,6.8z M43.9,5.4c-0.1,0.1-0.4,0.4-0.6,0.4c0.1,0,0-0.1,0.1-0.1c0,0,0.1,0,0.1-0.1c0.1-0.1,0.2-0.2,0.3-0.3
		C43.9,5.3,43.9,5.4,43.9,5.4z M42.7,4.4C42.7,4.4,42.7,4.4,42.7,4.4c0-0.1,0.1-0.2,0.2-0.2C42.8,4.3,42.8,4.3,42.7,4.4z M42.7,4
		c0,0-0.3,0.3-0.3,0.2C42.5,4.1,42.6,4,42.7,4C42.7,3.9,42.7,4,42.7,4z M42.6,3.8C42.6,3.9,42.5,4,42.4,4c-0.1,0.1-0.1,0.1-0.2,0.1
		C42.3,4.1,42.6,3.8,42.6,3.8z M42.5,3.8c-0.1,0-0.2-0.1-0.3,0c-0.1,0-0.1,0.2-0.2,0.2c0.1-0.1,0.2-0.1,0.2-0.2c0,0-0.1,0-0.1,0
		C42.2,3.6,42.5,3.8,42.5,3.8z M39.4,5.5c0,0,0.1-0.1,0.1-0.1C39.5,5.4,39.4,5.5,39.4,5.5C39.4,5.5,39.4,5.5,39.4,5.5
		C39.4,5.5,39.4,5.5,39.4,5.5z M39.3,6c0.2-0.2,0.4-0.4,0.6-0.5c0,0.1-0.2,0.3-0.3,0.3c-0.1,0.1-0.2,0.2-0.3,0.3
		C39.3,6.1,39.3,6.1,39.3,6z M39,6.8C39,6.8,39.1,6.9,39,6.8C39,7,39,6.9,39,6.8z M39.2,6.9c0.2-0.2,0.5-0.4,0.7-0.7
		c0,0.2-0.1,0.3-0.3,0.4c-0.2,0.1-0.3,0.3-0.5,0.4C39.2,6.9,39.2,6.9,39.2,6.9z M39.4,7.7c0.1-0.1,0.2-0.2,0.4-0.3
		C39.6,7.5,39.5,7.6,39.4,7.7C39.4,7.7,39.4,7.7,39.4,7.7z M39.4,8c0.2-0.2,0.4-0.4,0.7-0.6C39.8,7.6,39.7,7.8,39.4,8
		C39.4,8,39.4,8,39.4,8z M39.3,8.1C39.3,8.1,39.4,8.2,39.3,8.1C39.4,8.2,39.3,8.2,39.3,8.1z M39.5,8.3c0-0.1,0.3-0.3,0.3-0.4
		c0.1-0.1,0.3-0.3,0.4-0.4c0,0.1-0.3,0.4-0.4,0.4C39.8,8.1,39.5,8.3,39.5,8.3z M39.7,8.7C39.7,8.7,39.7,8.7,39.7,8.7
		C39.7,8.7,39.7,8.8,39.7,8.7z M39.7,8.9c0.1-0.2,0.3-0.3,0.5-0.4c0.1-0.1,0.3-0.4,0.4-0.3c-0.1,0.1-0.3,0.3-0.4,0.4
		C40,8.7,39.9,8.8,39.7,8.9C39.7,8.9,39.7,8.9,39.7,8.9z M39.8,9.1C40,9,40.2,8.8,40.4,8.6c0.1-0.1,0.2-0.2,0.3-0.2
		c0.1,0,0.1,0,0.1,0c0,0,0-0.1,0.1-0.1c0,0.1-0.1,0.1-0.2,0.2c-0.1,0.1-0.1,0.1-0.2,0.1c0,0.1,0,0.1-0.1,0.2
		c-0.1,0.1-0.1,0.1-0.2,0.2C40.1,9,40,9.1,39.8,9.1C39.8,9.2,39.8,9.2,39.8,9.1z M39.9,9.6c0.1-0.1,0.2-0.2,0.3-0.3
		C40.1,9.4,40,9.6,39.9,9.6C39.9,9.6,39.9,9.6,39.9,9.6z M40,9.8c0.2-0.2,0.4-0.4,0.5-0.5C40.4,9.5,40.2,9.7,40,9.8
		C40,9.9,40,9.8,40,9.8z M40.1,10.2c0.1-0.1,0.6-0.7,0.7-0.6C40.6,9.8,40.4,10,40.1,10.2C40.1,10.2,40.1,10.2,40.1,10.2z M40.5,10.6
		c0.2-0.2,0.3-0.3,0.5-0.5c0,0.1-0.1,0.2-0.2,0.3c-0.1,0.1-0.1,0.1-0.2,0.2C40.6,10.6,40.6,10.6,40.5,10.6z M40.7,10.8
		c0.1-0.1,0.2-0.2,0.4-0.3c0.1,0.1,0,0.1-0.1,0.2C40.9,10.7,40.8,10.8,40.7,10.8z M41.5,11.2c0,0,0-0.1,0.1-0.1
		C41.7,11.2,41.6,11.3,41.5,11.2z M44.4,10.1c0.1-0.1,0.3-0.3,0.4-0.4c0.1,0.1-0.1,0.2-0.2,0.2C44.5,10,44.4,10.1,44.4,10.1
		C44.3,10.2,44.3,10.1,44.4,10.1z M44.5,10.5c0,0-0.1,0.1-0.1,0.1c0.1-0.1,0.2-0.2,0.3-0.3C44.7,10.4,44.6,10.5,44.5,10.5z
		 M44.3,9.8c0-0.2,0.2-0.2,0.3-0.3c0.1,0.1,0,0.1-0.1,0.2C44.5,9.7,44.4,9.7,44.3,9.8C44.4,9.8,44.3,9.9,44.3,9.8z M44.4,10.3
		c0,0-0.1,0.1-0.1,0.1C44.2,10.4,44.3,10.4,44.4,10.3z"/>
</g>
<g id="XMLID_629_">
	<path id="XMLID_489_" class="st0" d="M10.8,30.3c0.1-0.6,0.2-1.4-0.3-1.9c-0.1-0.1-0.3-0.2-0.4-0.3C10,28.1,9.9,28.1,9.7,28
		c-0.3-0.2-0.7-0.2-1,0c-0.1,0-0.3,0.1-0.2,0.2c0,0.1,0.1,0.1,0.1,0.1c0.1,0.1,0.2,0.1,0.2,0.2c0.2,0.2,0.7,0.4,0.7,0.7
		c0,0.1,0.1,0.1,0.2,0.1c0.2,0,0.2,0.2,0.3,0.4c0.1,0.3,0.1,0.7,0,1c-0.1,0.2-0.1,0.4-0.2,0.5c-0.1,0.1-0.3,0.2-0.4,0.3
		c-0.1,0.1-0.3,0.1-0.5,0.1c-0.1,0-0.2,0-0.3,0c-0.1,0-0.1,0.1-0.2,0.1c0.1-0.1-0.2-0.1-0.2-0.1c0,0,0.1,0.1,0.1,0.1
		c-0.1,0-0.2-0.1-0.3-0.1c0,0-0.1-0.1-0.1-0.1c-0.1,0-0.1,0-0.1,0c-0.1,0-0.1,0-0.2-0.1c0,0,0-0.1,0-0.1c0,0-0.1,0-0.2,0
		c-0.1,0-0.1-0.1-0.2-0.2c-0.2-0.2-0.4-0.3-0.6-0.4c-0.8-0.5-1.5-1-2.2-1.6c0.1,0.1,0.2,0.2,0.1,0.3c-0.2-0.1-0.1-0.4-0.3-0.4
		c0,0,0.1,0.2,0.1,0.2c-0.1,0-0.2-0.2-0.1-0.2c-0.3-0.2-0.6-0.5-0.8-0.7c-0.1-0.1-0.2-0.2-0.3-0.3C3.3,28,3.3,28,3.2,27.8
		c-0.1-0.4-0.2-0.7-0.1-1.1c0-0.1,0-0.1,0.1-0.2c0.1,0,0.1-0.1,0.2-0.1c0.1-0.1,0.3-0.2,0.4-0.2c0.2-0.1,0.3-0.2,0.5-0.2
		c0.2-0.1,0.3-0.1,0.5-0.1c0.1,0,0.2,0,0.3,0c0.1,0,0.1,0.1,0.2,0.1c0.1,0.1,0.2,0.1,0.2,0.2c0,0.1,0.1,0.1,0.1,0c0,0,0,0,0.1,0
		c0.1,0,0.2,0.2,0.4,0.2c0.2,0,0.2,0.1,0.4,0.1c0.1,0.1,0.2,0.2,0.4,0.2c0.2,0,0-0.3,0.1-0.3c-0.1-0.1,0-0.2-0.1-0.3
		c0-0.1-0.1-0.2-0.1-0.3c0.2,0,0.1-0.2,0-0.3c-0.1-0.2-0.2-0.1-0.4-0.2c-0.1,0-0.1,0-0.1-0.1c-0.1-0.1-0.1-0.1-0.2-0.2
		c-0.1,0-0.1,0-0.2-0.1c-0.1,0-0.1-0.1-0.1-0.1c-0.1-0.1-0.2-0.1-0.3-0.1c0,0,0,0.1-0.1,0.1c0,0-0.1,0-0.1,0c-0.3,0-0.7,0.2-1,0.3
		c0-0.1,0.1-0.1,0.1-0.1c-0.3,0.1-0.6,0.3-0.8,0.6c-0.3,0.3-0.6,0.5-0.8,0.9c-0.2,0.3-0.3,0.7-0.3,1.1c0,0.2,0,0.4,0,0.6
		c0,0.2,0,0.3,0.1,0.5c0.1,0.3,0.3,0.6,0.4,1c0.1,0.3,0.3,0.6,0.6,0.8c0.1,0.1,0.3,0.3,0.4,0.4c0.1,0,0.1,0.1,0.2,0.1
		c0,0,0.1,0,0.1,0.1c0,0,0,0,0,0c0.1,0.1,0.1,0.1,0.2,0.2c0,0,0,0.1,0.1,0.1c0.1,0.1,0.2,0.1,0.3,0.1c0.3,0.2,0.7,0.4,1,0.5
		C5.9,32,6,32.2,6.2,32.2c0.1,0.1,0.3,0.1,0.4,0.2c0,0.1,0,0.1,0.1,0.1c0.1,0,0.1,0.1,0.2,0.1c0.1,0.1,0.3,0.1,0.4,0.1
		c0.3,0.1,0.5,0.1,0.8,0.1c0.3,0,0.5-0.1,0.8-0.2c0.1,0,0.2-0.1,0.2-0.2c0,0,0.1-0.1,0.1-0.1c0,0,0.1,0,0.1,0
		c0.2-0.1,0.4-0.3,0.5-0.4c0-0.1,0.1-0.1,0.1-0.2c0.1-0.1,0.2-0.1,0.3-0.2C10.5,31.2,10.7,30.8,10.8,30.3z M8.3,32.1
		c0,0,0,0.1,0,0.1c0,0-0.1,0-0.1,0C8.2,32.1,8.2,32.1,8.3,32.1z M8,32.2c0,0,0,0.2-0.1,0.2c0-0.1,0-0.2,0.1-0.4
		C8,32.1,8,32.2,8,32.2z M7.6,32.3c0-0.1,0-0.3,0.1-0.4c0.1,0.1,0.1,0.2,0.1,0.3C7.7,32.3,7.7,32.4,7.6,32.3
		C7.5,32.4,7.5,32.4,7.6,32.3z M7,31.4c0,0.1,0,0.1,0,0.2c0,0,0,0,0-0.1C6.9,31.5,7,31.4,7,31.4C7,31.4,7,31.4,7,31.4z M6.1,31
		c0,0.1,0,0.1-0.1,0.2C6.1,31.1,6.1,31,6.1,31C6.1,31,6.1,31,6.1,31z M5.4,30.1C5.4,30.1,5.3,30,5.4,30.1C5.4,30,5.4,30.1,5.4,30.1z
		 M5.2,30.1c0,0.1,0,0.1,0,0.2c0,0,0,0,0,0C5.2,30.2,5.2,30.1,5.2,30.1C5.2,30.1,5.2,30.1,5.2,30.1z M5,30.1c-0.1,0,0-0.1,0-0.2
		C5,30,5,30.1,5,30.1z M4.7,30.9c0,0,0,0.1,0,0.1C4.7,31,4.7,30.9,4.7,30.9z M4.7,29.7C4.7,29.6,4.7,29.6,4.7,29.7
		C4.7,29.6,4.7,29.6,4.7,29.7z M4.6,30.4c0-0.1,0-0.1,0-0.2c0,0.2,0,0.5,0,0.7C4.4,30.9,4.5,30.5,4.6,30.4z M4.4,29.5
		c-0.1,0-0.1,0.2-0.1,0.3C4.3,29.7,4.3,29.6,4.4,29.5C4.4,29.5,4.4,29.5,4.4,29.5z M4.1,28.9c0,0,0.3,0.2,0.1,0.2
		c-0.1,0-0.2-0.2-0.3-0.2C4,28.9,4.1,28.9,4.1,28.9z M3.8,29c0,0.4-0.1,0.8-0.2,1.3c-0.1-0.1-0.1-0.1,0-0.2c0-0.1,0-0.3,0-0.4
		C3.7,29.4,3.7,29.2,3.8,29C3.8,28.9,3.8,29,3.8,29z M3.5,28.6c0,0.1,0,0.2-0.1,0.3c-0.1-0.3,0,0.3,0-0.1
		C3.4,28.7,3.4,28.6,3.5,28.6C3.5,28.6,3.5,28.6,3.5,28.6z M2.8,27.5c0.1,0,0,0.4,0,0.4C2.8,27.8,2.8,27.6,2.8,27.5z M3,26.4
		C3,26.3,3,26.3,3,26.4C3,26.3,3,26.3,3,26.4z M2.7,27.3c0,0.1,0,0.2,0,0.3C2.7,27.5,2.7,27.4,2.7,27.3z M2.9,28.2
		C2.9,28.2,2.9,28.2,2.9,28.2c0-0.1,0-0.3,0-0.4C3,28,3,28.1,2.9,28.2C2.9,28.2,2.9,28.2,2.9,28.2z M4.4,25.5c0,0,0-0.1,0-0.1
		C4.4,25.4,4.4,25.5,4.4,25.5z M5.6,25.3C5.6,25.3,5.6,25.3,5.6,25.3c0,0,0,0.3,0,0.4C5.5,25.7,5.6,25.4,5.6,25.3z M5.3,25.4
		c0,0.1,0,0.1,0,0.2C5.3,25.6,5.3,25.5,5.3,25.4z M6.5,25.7c0.1,0.1,0.1,0.2,0.1,0.3c0,0.1-0.1,0.2,0,0.2c0,0-0.1-0.1-0.1-0.1
		C6.4,26,6.5,25.8,6.5,25.7c0,0,0,0-0.1-0.1c-0.1-0.1-0.2-0.1-0.2-0.2C6.2,25.3,6.5,25.6,6.5,25.7z M6,25.5c0,0.1,0,0.2,0,0.4
		c-0.1,0-0.1,0-0.1-0.1C5.9,25.6,5.9,25.5,6,25.5C5.9,25.4,5.9,25.5,6,25.5z M5,25.2c0,0.1-0.1,0.4-0.1,0.3c0,0,0-0.1,0-0.1
		C4.9,25.3,4.9,25.3,5,25.2z M4.6,25.5C4.6,25.5,4.6,25.5,4.6,25.5c-0.1-0.1-0.1-0.2,0-0.2C4.6,25.4,4.6,25.4,4.6,25.5z M3.5,26.2
		C3.5,26.2,3.5,26.2,3.5,26.2c0.1,0-0.1,0.1-0.1,0.1C3.4,26.3,3.5,26.2,3.5,26.2z M2.7,29.1c0,0.1-0.1-0.1-0.1-0.1
		C2.7,28.9,2.7,29,2.7,29.1z M3.2,28.5C3.2,28.5,3.2,28.5,3.2,28.5c0-0.1,0-0.2,0-0.3c0.1,0.1,0,0.4,0,0.6c0,0.2,0,0.4,0,0.6
		c0,0-0.1-0.1-0.1-0.1c0-0.1,0-0.2,0-0.3C3.1,28.9,3.2,28.7,3.2,28.5z M3.6,30.4C3.6,30.3,3.7,30.5,3.6,30.4
		C3.7,30.4,3.6,30.4,3.6,30.4z M3.9,30.5c-0.1-0.1,0-0.5,0-0.6c0-0.2,0.1-0.4,0.1-0.7c0.1,0.2,0,0.4,0,0.6C4,29.9,3.9,30.5,3.9,30.5
		z M4.3,30.5c0,0.1,0,0.2,0,0.3C4.2,30.7,4.3,30.5,4.3,30.5z M4.8,31.1c0-0.3,0.1-0.6,0.1-1c0.1,0,0,0.4,0,0.5
		C4.9,30.8,4.9,30.9,4.8,31.1C4.9,31.1,4.8,31.1,4.8,31.1z M5.4,31.5c0-0.3,0.1-0.7,0.2-1c0.1,0.1,0.1,0.4,0,0.5
		C5.5,31.2,5.5,31.4,5.4,31.5C5.4,31.6,5.4,31.6,5.4,31.5z M5.7,31.7c0-0.3,0.1-0.6,0.1-1c0.1,0.1,0.1,0.1,0.1,0.2
		c0,0.1,0,0.2-0.1,0.2C5.8,31.3,5.8,31.5,5.7,31.7C5.7,31.7,5.7,31.7,5.7,31.7z M6.1,32.1c0-0.1,0-0.2,0-0.2
		C6.1,31.9,6.1,32.1,6.1,32.1z M6.3,32.1c0,0,0.1-0.5,0.1-0.6C6.4,31.7,6.4,32.1,6.3,32.1z M6.6,32.2c0-0.3,0.1-0.7,0.1-1
		C6.8,31.2,6.7,32.1,6.6,32.2C6.7,32.2,6.7,32.2,6.6,32.2z M7.3,31.7c0,0,0,0.1,0,0.1c0.1,0,0,0.5,0,0.6c-0.1,0-0.1,0-0.1-0.1
		c0-0.1,0-0.1,0-0.2C7.3,32,7.3,31.8,7.3,31.7z M9.1,28.2C9.1,28.2,9.1,28.2,9.1,28.2C9.1,28.2,9.1,28.3,9.1,28.2
		C9.1,28.2,9.1,28.3,9.1,28.2z M9.4,28.6c-0.1-0.1,0-0.2,0-0.3C9.6,28.4,9.5,28.5,9.4,28.6C9.5,28.6,9.4,28.6,9.4,28.6z M9.9,29.2
		c0-0.2,0.1-0.4,0.1-0.7c0.2,0.1,0,0.6,0,0.8C10,29.2,10,29.2,9.9,29.2z M10.2,29.5c0-0.2,0.1-0.4,0.1-0.7
		C10.4,29,10.3,29.4,10.2,29.5C10.2,29.6,10.2,29.6,10.2,29.5z"/>
</g>
<g id="XMLID_583_">
	<path id="XMLID_488_" class="st0" d="M18.4,19.7c0.4-0.5,0.7-1.2,0.5-1.8c-0.1-0.2-0.2-0.3-0.2-0.4c-0.1-0.1-0.1-0.2-0.2-0.3
		c-0.2-0.3-0.5-0.5-0.9-0.4c-0.1,0-0.3,0-0.3,0.1c0,0.1,0.1,0.1,0.1,0.2c0.1,0.1,0.1,0.2,0.1,0.3c0.1,0.3,0.4,0.7,0.4,1
		c0,0.2,0,0.1,0.1,0.2c0.2,0.1,0.1,0.3,0.1,0.5c-0.1,0.4-0.2,0.7-0.4,0.9c-0.1,0.2-0.2,0.3-0.4,0.4c-0.2,0.1-0.3,0.1-0.5,0.1
		c-0.2,0-0.3,0-0.5-0.1c-0.1,0-0.2-0.1-0.2-0.1c-0.1,0-0.1,0.1-0.2,0c0.1-0.1-0.1-0.2-0.2-0.2c0,0,0.1,0.1,0,0.1
		c-0.1-0.1-0.1-0.1-0.2-0.2c0,0,0-0.1-0.1-0.1c0,0,0,0-0.1,0c-0.1,0-0.1-0.1-0.1-0.1c0-0.1,0.1-0.1,0-0.1c0,0-0.1,0-0.1-0.1
		c-0.1-0.1,0-0.2-0.1-0.2c-0.1-0.2-0.2-0.4-0.4-0.6c-0.5-0.7-0.9-1.6-1.4-2.4c0,0.1,0.1,0.2,0,0.3c-0.1-0.2,0.1-0.4-0.1-0.5
		c0,0,0,0.2,0,0.2c-0.1,0-0.1-0.2,0-0.2c-0.1-0.3-0.3-0.6-0.4-1c0-0.2,0-0.3-0.1-0.4c-0.1-0.1,0-0.2,0-0.3c0.1-0.4,0.2-0.7,0.4-1.1
		c0.1-0.1,0.1-0.1,0.2-0.2c0.1,0,0.1,0,0.2,0c0.1,0,0.3,0,0.4,0c0.2,0,0.4,0,0.5,0c0.2,0,0.3,0.1,0.5,0.1c0.1,0,0.2,0,0.2,0.1
		c0.1,0.1,0.1,0.1,0.1,0.2c0.1,0.1,0.1,0.2,0.2,0.3c0,0.1,0,0.1,0.1,0.1c0,0,0,0,0.1,0c0.1,0.1,0.1,0.3,0.3,0.3
		c0.1,0.1,0.2,0.2,0.3,0.3c0.1,0.1,0.1,0.3,0.2,0.3c0.2,0.1,0.1-0.2,0.2-0.2c0-0.1,0.1-0.2,0.1-0.3c0-0.1,0-0.2,0-0.3
		c0.2,0,0.2-0.2,0.1-0.3c0-0.2-0.1-0.2-0.3-0.3c-0.1-0.1-0.1,0-0.1-0.1c0-0.1-0.1-0.2-0.1-0.3c0-0.1-0.1-0.1-0.1-0.1
		c-0.1-0.1,0-0.1-0.1-0.2c0-0.1-0.1-0.2-0.2-0.2c0,0-0.1,0-0.1,0c0,0-0.1-0.1-0.1-0.1c-0.3-0.1-0.7-0.1-1.1-0.2
		c0-0.1,0.1-0.1,0.1-0.1c-0.4,0-0.6,0.1-1,0.2c-0.4,0.1-0.8,0.2-1.1,0.5c-0.3,0.2-0.5,0.5-0.7,0.9c-0.1,0.2-0.1,0.3-0.2,0.5
		c0,0.2-0.1,0.3-0.2,0.5c-0.1,0.3,0,0.7,0,1c0,0.3,0.1,0.6,0.2,1c0.1,0.2,0.1,0.3,0.2,0.5c0,0.1,0.1,0.1,0.1,0.2
		c0,0,0.1,0.1,0.1,0.1c0,0,0,0,0,0c0,0.1,0.1,0.2,0.1,0.3c0,0.1,0,0.1,0,0.1c0,0.1,0.1,0.2,0.2,0.2c0.2,0.3,0.4,0.6,0.7,0.9
		c0.1,0.2,0.2,0.3,0.3,0.5c0.1,0.1,0.2,0.2,0.3,0.3c-0.1,0.1,0,0.1,0,0.2c0,0,0.1,0.1,0.1,0.1c0.1,0.1,0.2,0.2,0.3,0.3
		c0.2,0.2,0.4,0.3,0.7,0.4c0.2,0.1,0.5,0.1,0.8,0.2c0.1,0,0.2,0,0.3-0.1c0,0,0.1-0.1,0.2,0c0,0,0,0,0.1,0c0.2,0,0.5,0,0.7-0.1
		c0.1,0,0.1-0.1,0.2-0.1c0.1,0,0.2-0.1,0.3-0.1C17.8,20.3,18.2,20,18.4,19.7z M15.4,20.3C15.4,20.3,15.4,20.3,15.4,20.3
		c-0.1,0.1-0.1,0-0.1,0.1C15.4,20.2,15.3,20.2,15.4,20.3z M15.1,20.2c-0.1,0-0.1,0.2-0.2,0.1c0.1-0.1,0.1-0.2,0.2-0.3
		C15.2,20.1,15.1,20.1,15.1,20.2z M14.7,20.1c0.1-0.1,0.2-0.2,0.2-0.4c0.1,0.1,0,0.2-0.1,0.3C14.8,20.2,14.7,20.3,14.7,20.1
		C14.6,20.2,14.7,20.1,14.7,20.1z M14.6,19.1c0,0.1-0.1,0.1-0.1,0.2c0,0,0,0,0-0.1C14.5,19.1,14.5,19.1,14.6,19.1
		C14.6,19.1,14.6,19.1,14.6,19.1z M14,18.3c0,0.1-0.1,0.1-0.1,0.2C13.9,18.4,13.9,18.3,14,18.3C14,18.3,14,18.3,14,18.3z M13.7,17.2
		c-0.1,0-0.1-0.1-0.1-0.1C13.7,17.1,13.7,17.2,13.7,17.2z M13.5,17.1c0,0-0.1,0.1-0.1,0.1c0,0,0,0,0-0.1
		C13.4,17.2,13.4,17.1,13.5,17.1C13.5,17.1,13.5,17.1,13.5,17.1z M13.3,17c0-0.1,0-0.1,0.1-0.1C13.3,16.9,13.3,17,13.3,17z
		 M12.7,17.6C12.7,17.7,12.6,17.7,12.7,17.6C12.6,17.7,12.7,17.7,12.7,17.6z M13.2,16.5C13.2,16.5,13.2,16.5,13.2,16.5
		C13.2,16.5,13.2,16.5,13.2,16.5z M12.8,17.1c0,0,0.1-0.1,0.1-0.1c-0.1,0.2-0.2,0.4-0.3,0.6C12.5,17.5,12.7,17.2,12.8,17.1z
		 M13,16.3c-0.1,0-0.2,0.2-0.2,0.2C12.8,16.4,12.9,16.3,13,16.3C13,16.2,13,16.2,13,16.3z M13,15.6c0,0,0.2,0.3,0,0.2
		c-0.1,0-0.1-0.2-0.1-0.3C12.9,15.5,12.9,15.6,13,15.6z M12.7,15.5c-0.2,0.4-0.4,0.7-0.7,1.1c0-0.1,0-0.1,0-0.2
		c0.1-0.1,0.1-0.2,0.2-0.3C12.4,15.9,12.5,15.7,12.7,15.5C12.7,15.5,12.7,15.5,12.7,15.5z M12.5,15c-0.1,0.1-0.1,0.2-0.2,0.3
		c0-0.3-0.1,0.2,0-0.1C12.4,15.1,12.5,15,12.5,15C12.5,15,12.5,15,12.5,15z M12.4,13.7c0,0.1-0.2,0.3-0.2,0.4
		C12.2,14,12.3,13.9,12.4,13.7z M13,12.8C13.1,12.8,13.1,12.7,13,12.8C13.1,12.8,13.1,12.8,13,12.8z M12.4,13.5
		c-0.1,0.1-0.1,0.2-0.2,0.3C12.3,13.7,12.3,13.6,12.4,13.5z M12.2,14.4C12.2,14.4,12.2,14.4,12.2,14.4c0-0.1,0.1-0.2,0.2-0.4
		C12.4,14.2,12.3,14.3,12.2,14.4C12.2,14.5,12.2,14.5,12.2,14.4z M14.7,12.6C14.7,12.6,14.7,12.5,14.7,12.6
		C14.7,12.6,14.7,12.6,14.7,12.6z M15.8,12.9C15.8,12.9,15.8,12.9,15.8,12.9c0.1,0-0.1,0.3-0.2,0.3C15.6,13.2,15.7,13,15.8,12.9z
		 M15.5,12.9c0,0.1-0.1,0.1-0.1,0.2C15.4,13.1,15.5,12.9,15.5,12.9z M16.5,13.6c0,0.1,0,0.2-0.1,0.3c0,0-0.1,0.2-0.1,0.2
		c0,0,0-0.2,0-0.2C16.3,13.9,16.4,13.8,16.5,13.6c0-0.1,0,0-0.1-0.2c0-0.1-0.1-0.2-0.1-0.3C16.5,13.1,16.5,13.5,16.5,13.6z
		 M16.1,13.2c-0.1,0.1-0.1,0.2-0.2,0.3c-0.1-0.1-0.1-0.1,0-0.2C16,13.3,16,13.2,16.1,13.2C16.1,13.2,16.1,13.2,16.1,13.2z
		 M15.3,12.6c0,0-0.2,0.3-0.2,0.2c0,0,0.1-0.1,0.1-0.1C15.2,12.6,15.2,12.6,15.3,12.6z M14.9,12.7C14.8,12.7,14.8,12.7,14.9,12.7
		c0-0.1,0-0.2,0.1-0.2C14.9,12.6,14.9,12.6,14.9,12.7z M13.6,12.9C13.6,12.9,13.6,12.9,13.6,12.9c0.1,0-0.1,0-0.1,0
		C13.4,12.9,13.6,12.9,13.6,12.9z M11.7,15.2c0,0.1-0.1-0.1,0-0.1C11.7,15,11.7,15.1,11.7,15.2z M12.3,14.8
		C12.3,14.8,12.3,14.8,12.3,14.8c0-0.1,0.1-0.2,0.1-0.2c0,0.1-0.2,0.4-0.2,0.5c-0.1,0.2-0.2,0.4-0.3,0.5c0,0,0-0.1,0-0.1
		c0-0.1,0.1-0.2,0.2-0.2C12.1,15.1,12.2,15,12.3,14.8z M11.9,16.7c0-0.1,0.1,0.1,0.1,0.1C12,16.8,11.9,16.7,11.9,16.7z M12.1,16.9
		c0-0.1,0.2-0.4,0.3-0.5c0.1-0.2,0.2-0.4,0.4-0.6c0.1,0.2-0.2,0.4-0.3,0.6C12.5,16.5,12.1,16.9,12.1,16.9z M12.5,17.1
		c0,0.1-0.1,0.2-0.1,0.2C12.3,17.3,12.5,17.1,12.5,17.1z M12.7,17.9c0.2-0.3,0.3-0.6,0.5-0.8c0.1,0.1-0.1,0.3-0.2,0.4
		C12.9,17.6,12.9,17.8,12.7,17.9C12.7,17.9,12.7,17.9,12.7,17.9z M13,18.5c0.2-0.3,0.4-0.6,0.6-0.9c0.1,0.1-0.1,0.4-0.2,0.5
		C13.3,18.3,13.2,18.4,13,18.5C13.1,18.5,13,18.5,13,18.5z M13.2,18.8c0.2-0.3,0.3-0.6,0.5-0.8c0.1,0.1,0.1,0.1,0,0.2
		c0,0.1-0.1,0.1-0.2,0.2C13.5,18.5,13.4,18.6,13.2,18.8C13.3,18.8,13.2,18.8,13.2,18.8z M13.4,19.2c0-0.1,0.1-0.1,0.1-0.2
		C13.5,19.1,13.4,19.3,13.4,19.2z M13.6,19.4c0,0,0.3-0.4,0.3-0.5C13.9,19,13.7,19.4,13.6,19.4z M13.9,19.6c0.2-0.3,0.4-0.6,0.5-0.8
		C14.5,18.8,14,19.6,13.9,19.6C13.9,19.6,13.9,19.6,13.9,19.6z M14.8,19.4C14.8,19.5,14.8,19.5,14.8,19.4c0,0.2-0.3,0.6-0.3,0.7
		c-0.1-0.1-0.1,0-0.1-0.1c0-0.1,0.1-0.1,0.1-0.2C14.6,19.7,14.7,19.5,14.8,19.4z M17.8,17C17.8,17,17.8,17,17.8,17
		C17.8,17,17.8,17.1,17.8,17C17.8,17,17.8,17.1,17.8,17z M17.9,17.5c0-0.1,0.1-0.2,0.1-0.3C18.2,17.4,18,17.5,17.9,17.5
		C17.9,17.6,17.9,17.6,17.9,17.5z M18.2,18.2c0.1-0.2,0.3-0.4,0.4-0.5c0.2,0.2-0.3,0.6-0.3,0.7C18.2,18.3,18.2,18.3,18.2,18.2z
		 M18.3,18.7c0.1-0.2,0.2-0.4,0.4-0.6C18.7,18.3,18.4,18.6,18.3,18.7C18.3,18.7,18.3,18.7,18.3,18.7z"/>
</g>
<g id="XMLID_494_">
	<path id="XMLID_487_" class="st0" d="M21.8,17.5c0.3-0.1,0.6-0.2,0.9-0.4c0.2-0.1,0.2-0.4,0-0.5c-0.1,0-0.2,0-0.3,0
		c-0.1,0-0.2-0.1-0.3-0.2c-0.2-0.3-0.2-0.5-0.3-0.8c-0.1-0.3-0.3-0.6-0.4-1c-0.1-0.2-0.1-0.3-0.2-0.5C21.1,14,21,13.9,21,13.7
		c0-0.1,0-0.3,0-0.4c0-0.1,0-0.3,0-0.4c0.1-0.3,0.2-0.5,0.5-0.7c0.2-0.1,0.3-0.2,0.5-0.3c0.2-0.1,0.3,0,0.5,0
		c0.3,0.1,0.5,0.1,0.8,0.3c-0.1,0.1,0,0.1,0.1,0.2c0,0.1,0.1,0.1,0.1,0.2c0.1,0.1,0.2,0.3,0.3,0.5c0.2,0.3,0.3,0.6,0.4,0.9
		c0.1,0.3,0.2,0.6,0.4,0.9c0.1,0.1,0.2,0.2,0.3,0.2c0.1,0.1,0.1,0.2,0.2,0.2c0.2,0.2,0.5,0.3,0.8,0.3c0.1,0,0.2,0,0.4,0
		c0.2,0,0.3,0,0.5-0.1c0.1,0,0.1-0.1,0.2-0.1c0,0,0.1,0,0.1,0c0.1-0.1,0.1-0.2,0-0.2c-0.1-0.2-0.5-0.2-0.7-0.3
		c-0.5-0.4-0.6-1.1-0.7-1.6c-0.1-0.3-0.2-0.6-0.5-0.9c-0.2-0.2-0.4-0.4-0.6-0.5c-0.2-0.2-0.5-0.4-0.8-0.4c-0.1,0-0.7,0-0.6-0.2
		c0-0.1,0.2-0.2,0.3-0.3c0.1-0.1,0.2-0.3,0.2-0.4c0.1-0.3,0-0.6,0.1-0.9c0-0.1,0-0.2-0.1-0.3c-0.1-0.1-0.2-0.1-0.3-0.3
		c-0.2-0.3-0.4-0.6-0.7-0.7c-0.3-0.2-0.6-0.3-0.9-0.2c-0.1,0-0.3,0.1-0.3,0.3c0,0.2,0.3,0.2,0.4,0.2c0,0-0.1,0-0.1,0
		c0,0,0.2,0,0.2,0.1C22,8.7,22,8.8,22.1,8.9c0.1,0.1,0.3,0.3,0.3,0.5c0.1,0.2,0.1,0.4,0,0.6c0,0.1-0.1,0.2-0.1,0.3
		c0,0.1,0.1,0,0,0.2c-0.1-0.1-0.2,0.2-0.2,0.2c0.1-0.1,0.2-0.1,0.1,0c-0.1,0.1-0.1,0.1-0.2,0.2c0,0-0.1,0.1-0.2,0.1c0,0,0,0.1,0,0.1
		c0,0.1-0.1,0.1-0.2,0.1c0,0,0,0-0.1,0c-0.1,0,0,0-0.1,0.1c-0.1,0.1-0.1,0.1-0.2,0.1c-0.2,0-0.5,0.1-0.7,0c-0.5-0.2-0.7-1-0.8-1.4
		c-0.2-0.6-0.4-1.1-0.7-1.7c0,0.1,0.1,0.3,0,0.3C19,8.4,19.2,8.1,19,8c0,0,0.1,0.3,0,0.3c-0.1,0-0.1-0.3,0-0.3
		c-0.2-0.4-0.4-0.8-0.6-1.2c-0.1-0.2-0.1-0.4-0.2-0.6c0-0.2,0.2-0.1,0.3-0.2c0.1-0.1,0.1-0.2,0-0.3c-0.1-0.1-0.4,0-0.6,0
		c-0.2,0-0.4,0.1-0.7,0.2C17.1,6,17,6.1,16.7,6.2c-0.2,0-0.4,0-0.3,0.3c0,0.1,0.1,0.2,0.2,0.2c0.1,0,0.2,0,0.2,0.2
		C16.9,7,17,7.2,17.1,7.4c0.2,0.3,0.3,0.7,0.5,1c0.1,0.2,0.1,0.4,0.2,0.6c0,0.1,0,0.3,0.1,0.4c0,0,0.1,0.1,0.1,0.1
		C18,9.6,18,9.8,18,10c0.1,0.1,0.2,0.2,0.3,0.4c0.2,0.5,0.5,1,0.7,1.5c-0.1,0-0.1,0.1-0.1,0.2c0,0.1,0,0.2,0.1,0.3
		c0,0.1,0.1,0.1,0.2,0.2c0.1,0.1,0.1,0.3,0.2,0.4c0,0.1,0.2,0.3,0.2,0.5c0,0.1-0.1,0.1,0,0.2c0,0,0,0.1,0.1,0.1c0,0,0,0,0.1,0
		c0.1,0.1,0.1,0.1,0.1,0.1c0.2,0.4,0.5,0.8,0.6,1.2c-0.1,0-0.1-0.1-0.1-0.1c0.1,0.3,0.3,0.6,0.4,0.9c0.1,0.2,0.1,0.4,0.2,0.7
		c0,0.1,0.1,0.2,0.1,0.3c0,0,0,0.1,0,0.1c0,0.1,0,0.1-0.1,0.1c-0.1,0.1-0.2,0.1-0.2,0.3c0,0.1,0.1,0.3,0.2,0.3
		c0.1,0,0.3-0.1,0.5-0.1C21.4,17.7,21.6,17.6,21.8,17.5z M22.2,17c0,0-0.1,0-0.1,0.1C22.1,17,22.1,17,22.2,17z M22.1,16.6
		c0,0.1-0.2-0.1-0.1-0.1C22,16.4,22.1,16.5,22.1,16.6z M21.3,16.3c-0.1,0.1-0.2,0.2-0.2,0.3C21.1,16.5,21.2,16.4,21.3,16.3z
		 M21.2,15.7c-0.1,0.1-0.2,0.2-0.3,0.3C20.9,16,21.1,15.8,21.2,15.7z M21,17.1C21,17,21,17.1,21,17.1C21,17.1,21,17.1,21,17.1z
		 M20.5,14.2c-0.1,0.1-0.2,0.2-0.2,0.3C20.4,14.4,20.4,14.3,20.5,14.2z M20,13.4c0.1,0,0.3-0.3,0.3-0.4c0.1-0.1,0.2-0.3,0.3-0.4
		c0,0.1,0,0.2-0.1,0.3c-0.1,0.1-0.1,0.1-0.2,0.2c-0.1,0.2-0.3,0.3-0.4,0.5C19.9,13.5,20,13.5,20,13.4z M20.6,11.7
		C20.6,11.8,20.6,11.8,20.6,11.7c0,0.1,0,0.1,0,0.1C20.5,11.9,20.5,11.7,20.6,11.7z M21.3,11.8C21.3,11.8,21.3,11.8,21.3,11.8
		c-0.1,0.1-0.2,0.2-0.3,0.3C21.1,12,21.2,11.9,21.3,11.8z M23,9.3c0,0.1-0.1,0.1-0.1,0.2C22.8,9.4,23,9.3,23,9.3z M23,9.5
		c0,0-0.1,0.1-0.1,0.1C22.9,9.6,22.9,9.5,23,9.5z M23.4,10.2c0,0.1-0.3,0.4-0.3,0.4c-0.1,0.1-0.3,0.3-0.4,0.4c0,0,0,0,0-0.1
		c0,0,0.1-0.1,0.1-0.1c0.1-0.1,0.1-0.1,0.2-0.2C23.1,10.5,23.3,10.4,23.4,10.2z M21.7,11.8C21.7,11.8,21.7,11.8,21.7,11.8
		c0.1-0.2,0.3-0.4,0.5-0.5c-0.1,0.1-0.2,0.2-0.3,0.3C21.9,11.6,21.8,11.8,21.7,11.8z M22.5,10.9c0.2-0.4,0.5-0.7,0.8-1
		C23,10.2,22.8,10.6,22.5,10.9z M21.1,12.2C21.1,12.2,21.1,12.2,21.1,12.2C21.1,12.2,21.1,12.2,21.1,12.2z M21.2,14.6
		C21.2,14.6,21.2,14.6,21.2,14.6c0,0-0.1-0.1-0.1-0.1C21.1,14.5,21.2,14.5,21.2,14.6z M23,11.9c0,0-0.1,0-0.1,0
		c0.1-0.1,0.2-0.3,0.3-0.2C23.1,11.7,23,11.8,23,11.9z M23.7,12.4c0,0,0.3-0.4,0.3-0.4C23.9,12.2,23.8,12.3,23.7,12.4
		C23.7,12.4,23.7,12.4,23.7,12.4z M23.9,12.7c0.1-0.1,0.3-0.3,0.4-0.4C24.1,12.4,24,12.6,23.9,12.7C23.9,12.7,23.9,12.7,23.9,12.7z
		 M24.8,12.7c0,0-0.1,0.2-0.2,0.2C24.7,12.8,24.7,12.7,24.8,12.7z M24.4,13.6C24.5,13.5,24.5,13.5,24.4,13.6
		C24.5,13.5,24.4,13.6,24.4,13.6z M25.2,13.5c-0.2,0.2-0.4,0.4-0.6,0.6c0-0.1,0.2-0.3,0.2-0.3C25,13.6,25.1,13.5,25.2,13.5
		C25.2,13.4,25.2,13.5,25.2,13.5z M24.5,13.7C24.5,13.7,24.5,13.7,24.5,13.7C24.5,13.7,24.5,13.7,24.5,13.7z M24.6,13.9
		c0.1-0.1,0.3-0.3,0.4-0.4C24.8,13.6,24.7,13.8,24.6,13.9C24.6,13.9,24.6,13.9,24.6,13.9z M24.7,14.2c0,0,0.1-0.1,0.1-0.1
		C24.8,14.1,24.7,14.2,24.7,14.2z M25.4,14.3c-0.1,0.1-0.2,0.3-0.4,0.4C25,14.7,25.4,14.3,25.4,14.3z M24.9,14.5
		c0-0.1,0.1-0.2,0.2-0.2C25,14.4,24.9,14.4,24.9,14.5z M25.6,14.7c0,0-0.2,0.3-0.2,0.3C25.5,14.9,25.6,14.8,25.6,14.7z M26.1,15.4
		c0.1-0.1,0.1-0.1,0.1,0C26.2,15.4,26.1,15.4,26.1,15.4z M25.7,14.9c-0.1,0.1-0.2,0.2-0.3,0.2C25.5,15,25.6,14.9,25.7,14.9
		C25.7,14.9,25.7,14.9,25.7,14.9z M25.4,14.7c0,0-0.1,0.1-0.2,0.2c0,0-0.1,0.1-0.1,0c0-0.1,0.2-0.2,0.3-0.3
		C25.5,14.6,25.5,14.7,25.4,14.7z M24.8,14.4c0-0.1,0.2-0.3,0.2-0.3c0.1-0.1,0.2-0.2,0.2-0.3C25.3,13.9,24.9,14.2,24.8,14.4z
		 M24.9,12.9c-0.2,0.2-0.4,0.4-0.6,0.6C24.3,13.4,24.8,12.9,24.9,12.9C24.9,12.8,24.9,12.8,24.9,12.9z M24.7,12.5
		c-0.2,0.2-0.4,0.4-0.5,0.6C24.1,13.1,24.6,12.6,24.7,12.5C24.7,12.5,24.7,12.5,24.7,12.5z M24.5,12.3c-0.1,0.2-0.3,0.3-0.4,0.4
		C24.2,12.7,24.5,12.3,24.5,12.3z M24,12.3c0,0,0.1-0.2,0.1-0.1C24.1,12.2,24.1,12.2,24,12.3z M23.9,12c-0.1,0.1-0.1,0.1-0.2,0.2
		C23.7,12.2,23.8,12,23.9,12z M23.8,11.9c-0.1,0.1-0.2,0.2-0.2,0.3c-0.1-0.1,0-0.1,0-0.2C23.6,12,23.7,11.9,23.8,11.9z M23.5,11.9
		c0,0,0.1-0.1,0.1-0.1C23.6,11.9,23.5,11.9,23.5,11.9z M23.4,11.8c-0.1,0-0.1,0.3-0.2,0.2C23.3,11.9,23.4,11.8,23.4,11.8z
		 M22.6,11.9c0,0-0.1,0-0.1,0c0.1-0.1,0.2-0.3,0.4-0.4c0,0.1,0,0.1-0.1,0.2C22.7,11.7,22.7,11.8,22.6,11.9z M23.3,10.2
		c0-0.1,0.1-0.1,0.1-0.1C23.4,10.1,23.3,10.1,23.3,10.2z M23.4,9.6c-0.2,0.2-0.3,0.3-0.4,0.5C23.1,9.9,23.2,9.7,23.4,9.6
		C23.4,9.6,23.4,9.6,23.4,9.6z M23.3,9.4C23.1,9.6,23,9.8,22.9,10c0-0.1,0.1-0.2,0.2-0.3C23.1,9.6,23.3,9.4,23.3,9.4z M23,9
		c-0.1,0.1-0.2,0.2-0.2,0.2C22.8,9.3,23,9.1,23,9C23,9,23,9,23,9z M22.8,8.8c0,0-0.1,0.1-0.1,0.1C22.6,8.9,22.7,8.8,22.8,8.8z
		 M22.7,9.6C22.7,9.6,22.7,9.6,22.7,9.6C22.8,9.6,22.8,9.6,22.7,9.6C22.7,9.6,22.7,9.6,22.7,9.6z M19.8,12.1
		c-0.1,0.1-0.2,0.2-0.2,0.3C19.6,12.3,19.7,12.2,19.8,12.1z M19.9,11.6c0,0,0.1-0.1,0.1-0.1c-0.2,0.3-0.4,0.5-0.6,0.8
		c-0.1-0.1,0.1-0.2,0.2-0.3C19.7,11.8,19.8,11.7,19.9,11.6z M19.5,9.6c-0.1,0-0.1-0.1-0.1-0.2C19.5,9.5,19.5,9.6,19.5,9.6z M19,10
		c-0.1,0.1-0.2,0.2-0.2,0.3C18.8,10.2,18.9,10.1,19,10z M18.5,9.8c0.1-0.1,0.2-0.3,0.3-0.4C18.8,9.6,18.7,9.7,18.5,9.8
		C18.6,9.9,18.6,9.8,18.5,9.8z M18.5,9.3c0.1,0,0.2-0.2,0.3-0.3c0.1-0.1,0.2-0.2,0.3-0.3c0,0,0,0.1,0,0.1c0,0.1,0,0.1-0.1,0.1
		c0,0.1-0.1,0.1-0.2,0.2c-0.1,0.1-0.3,0.3-0.4,0.4C18.3,9.4,18.4,9.3,18.5,9.3z M19,8.6C19,8.6,19,8.6,19,8.6C19,8.6,19,8.6,19,8.6z
		 M18.2,7.9C18.1,8,18.1,8.1,18,8.2C18.1,8.1,18.1,8,18.2,7.9z M17.7,7.2c0.1,0,0.1-0.2,0.2-0.2C18,6.9,18,6.8,18.1,6.7
		c0,0.1,0,0.1,0,0.1C18,6.9,18,7,17.9,7c-0.1,0.1-0.2,0.2-0.4,0.4C17.5,7.3,17.7,7.2,17.7,7.2z M18.1,7.4c-0.1,0.2-0.2,0.3-0.4,0.5
		C17.7,7.8,18,7.4,18.1,7.4z M18.7,7.4c0,0,0.2,0.4,0,0.3c-0.1-0.1-0.1-0.3-0.2-0.4C18.6,7.3,18.7,7.4,18.7,7.4z M16.8,6.6
		C16.8,6.6,16.7,6.6,16.8,6.6C16.7,6.5,16.9,6.6,16.8,6.6C16.9,6.6,16.9,6.6,16.8,6.6C16.8,6.6,16.8,6.6,16.8,6.6z M17.1,6.4
		c0.1-0.1,0.2-0.2,0.3-0.3C17.3,6.3,17.2,6.4,17.1,6.4C17.1,6.5,17.1,6.5,17.1,6.4z M17.4,6.9c0.1-0.1,0.1-0.1,0.2-0.2
		C17.5,6.7,17.4,6.9,17.4,6.9z M17.4,7c0.2-0.2,0.4-0.5,0.6-0.7c0,0.1,0,0.1,0,0.2c0,0.1-0.1,0.1-0.2,0.2C17.7,6.8,17.6,7,17.4,7
		C17.4,7.1,17.4,7.1,17.4,7z M17.8,8.1c0.2-0.2,0.4-0.5,0.6-0.7c0,0.1-0.2,0.3-0.2,0.3C18.1,7.9,18,8,17.8,8.1
		C17.8,8.1,17.8,8.1,17.8,8.1z M18,8.5c0.2-0.2,0.4-0.5,0.6-0.7C18.6,8,18.1,8.3,18,8.5C18,8.5,18,8.5,18,8.5z M18.1,8.9
		c0.1-0.1,0.1-0.1,0.2-0.2C18.3,8.8,18.2,9,18.1,8.9z M18.2,9.1c0.2-0.3,0.4-0.5,0.6-0.7c0.1,0.1,0.1,0.1,0,0.2
		c-0.1,0.1-0.1,0.1-0.2,0.2C18.5,8.9,18.4,9,18.2,9.1C18.2,9.1,18.2,9.1,18.2,9.1z M18.6,10.1c0.2-0.2,0.4-0.5,0.6-0.7
		C19.1,9.7,18.9,10,18.6,10.1C18.6,10.2,18.6,10.1,18.6,10.1z M18.8,10.5c0.2-0.3,0.4-0.5,0.7-0.8c0,0.1-0.2,0.4-0.3,0.4
		C19,10.3,18.9,10.4,18.8,10.5C18.8,10.5,18.8,10.5,18.8,10.5z M19,11c0,0,0.1-0.1,0.1-0.1C19.1,10.9,19,11,19,11z M19,11.1
		c0.2-0.2,0.3-0.4,0.5-0.6c0.1,0.2,0,0.2-0.1,0.3C19.3,11,19.2,11.1,19,11.1C19,11.2,19,11.2,19,11.1z M19.1,11.5
		c0.2-0.2,0.4-0.4,0.6-0.6c0,0.1,0,0.1,0,0.1c-0.1,0.1-0.1,0.1-0.2,0.2C19.3,11.3,19.2,11.4,19.1,11.5
		C19.1,11.6,19.1,11.5,19.1,11.5z M19.1,11.8C19.1,11.8,19.1,11.7,19.1,11.8C19.1,11.8,19.1,11.8,19.1,11.8z M19.3,12.6
		c-0.1-0.1-0.1-0.3-0.1-0.5c0,0.1,0.1,0,0.1-0.1c0-0.1,0.1-0.1,0.1-0.2c0.1-0.1,0.2-0.2,0.3-0.3c-0.1,0.1-0.2,0.2-0.2,0.3
		c0,0.1-0.1,0.1-0.1,0.1c-0.1,0.1-0.1,0.1-0.1,0.2c0,0.1,0.1,0.2,0.1,0.2c0,0,0.1-0.1,0.1-0.1C19.4,12.4,19.3,12.4,19.3,12.6
		c0,0,0.1,0.1,0.1,0.1C19.3,12.7,19.3,12.6,19.3,12.6z M19.6,12.6C19.5,12.6,19.5,12.6,19.6,12.6c0.1-0.1,0.7-1,0.8-1
		c-0.1,0.2-0.3,0.4-0.4,0.5C19.9,12.2,19.5,12.6,19.6,12.6z M19.7,13.1c0,0,0.1-0.1,0.1-0.1C19.8,13,19.7,13.1,19.7,13.1z
		 M19.8,13.2c0.2-0.3,0.4-0.5,0.7-0.8c0.1-0.1,0.2-0.3,0.3-0.4c0.1-0.1,0.2-0.3,0.3-0.3c-0.2,0.3-0.4,0.5-0.6,0.8
		C20.3,12.9,20,13.1,19.8,13.2C19.8,13.3,19.8,13.3,19.8,13.2z M20.1,14c0.1-0.1,0.2-0.3,0.3-0.4C20.3,13.8,20.2,13.9,20.1,14
		C20.1,14,20.1,14,20.1,14z M20.2,14.3c0.2-0.2,0.3-0.4,0.5-0.6c0,0.1-0.2,0.3-0.2,0.3C20.4,14.1,20.3,14.2,20.2,14.3
		C20.2,14.3,20.2,14.3,20.2,14.3z M20.4,14.6c0.2-0.2,0.3-0.4,0.5-0.6C20.9,14.2,20.5,14.5,20.4,14.6C20.4,14.7,20.4,14.6,20.4,14.6
		z M20.7,15.2c0.1-0.2,0.3-0.3,0.4-0.5c0.1,0.2,0,0.2-0.1,0.3C20.9,15.1,20.8,15.2,20.7,15.2C20.7,15.2,20.7,15.2,20.7,15.2z
		 M20.7,15.6c0.2-0.2,0.3-0.4,0.5-0.6c0.1,0.1-0.1,0.2-0.2,0.3C20.9,15.5,20.8,15.6,20.7,15.6C20.7,15.7,20.7,15.6,20.7,15.6z
		 M21,16.4c0-0.1,0.2-0.2,0.2-0.3c0.1-0.1,0.2-0.2,0.3-0.3c0,0.1-0.2,0.3-0.2,0.3C21.2,16.2,21.1,16.3,21,16.4
		C21,16.4,21,16.4,21,16.4z M21,16.8c0.2-0.2,0.4-0.5,0.6-0.7c0.1,0.1-0.1,0.3-0.2,0.4C21.3,16.6,21.2,16.7,21,16.8
		C21,16.9,21,16.8,21,16.8z M21.2,17.3c0-0.1,0.1-0.1,0.1-0.2C21.4,17.2,21.2,17.3,21.2,17.3z M21.4,17.4
		C21.4,17.4,21.4,17.4,21.4,17.4C21.4,17.4,21.4,17.4,21.4,17.4z M21.4,17.3c0.2-0.2,0.3-0.4,0.5-0.6c0,0.1,0.1,0.1,0,0.2
		c0,0.1-0.1,0.1-0.2,0.2C21.6,17.2,21.6,17.3,21.4,17.3z"/>
</g>
<path id="XMLID_11_" class="st0" d="M25.2,38.7c0.1,0.9,0.8,0.3,1.1,0.1c0.4-0.5,0.9-0.9,1.5-1.2c-0.5-0.1-1-0.3-1.4-0.5
	c0,0,0,0-0.1,0c-0.2,0.1-0.2,1.2-0.8,1c-0.2,0-0.1-1-0.6-0.7c-0.2-0.1-0.5,0.2-0.7,0.2c-0.1-0.1-0.2-0.5-0.2-0.7
	c-1.3,0.5-2.5,0.2-3.1-1.2c-0.2-0.1-0.6,0.2-0.8,0.1c-0.1-1.3-1.2-1.5-1.7-2.2c0,0.1-0.1,0.2-0.2,0.1c0.6-0.5,0.6-1.4-0.2-1.4
	c0,0.1-0.5,0.5-0.7,0.2c0.6-0.6,1.7-1.7,0.2-1.7c0.5-0.1,0.8-0.5,1-0.6c-0.7-0.2-0.7-0.8-0.6-1.3c0.1-0.5,0.5-1,0.5-1.4
	c-0.5-0.1-1.7-0.1-1.5-0.6c0.2-0.8,1.5-0.6,2.4-0.6c0-0.6,0.2-0.5-0.1-1.3c0.5,0.1,0.7,0.1,0.8,0c-0.2-0.8,0.5-1.4,1.2-1.8
	c0.6-0.5,1.2-0.8,1-2c1,0.6,1-0.8,2.1-0.6c0.5-1,1.5-1.8,2.8-1.7c0-0.4,0.1-0.7,0.1-1c-0.2,0.2-1.1-1.5-1-0.5c0.1,0,1,0.8,0.6,0.8
	c-0.2,0-0.5-0.5-0.6-0.8c-0.7,0.2-1,1-2,1.3c-0.2,0.1,0.1,0.6,0,0.7c-0.8-0.6-2.2,0-2.1,1.3c-1.2-0.2-1.5-0.5-2.4,0
	c0,0.8-0.7,1.4-0.5,2.1h-1.8c0.7,0.6-0.2,0.6-0.6,0.7c1,1.2-0.1,1,0.2,2.1c-0.1,0.2-0.2,0.6-0.5,0.8c-0.8-0.5-1.4-0.5-1.5,0.1
	c0.8,0.5,0.7,0.6,1.2,0.7c-0.6,0.1-0.8,0.6-0.6,0.8c-0.2,0.1-1.3-0.1-1.2,0.6c0.2,0,0.7,0,0.7,0.2c-0.6,0.2,0.7,1,0.2,1.8
	c-0.2,0-0.5-0.1-0.7-0.1c-0.1,0.7,0.2,1,0.6,1.4c-0.2,1,0,1.8,0.5,2.5c0.5,0.7,1.2,1.3,1.7,1.8c-0.1,0.8,1.2,0.8,1.7,1.3
	c0.1,0.2,0,0.6,0.5,0.7c0.8,0.1,1.8,0.7,2.5,0.2c-0.1,0.6,0.5,0.5,0.2,0.8C23.7,39,24.2,39.5,25.2,38.7z M25.8,18.2l0.2-0.1
	c0.5,0.6,0,0.7-0.2,0.8C25.8,18.5,25.9,18.4,25.8,18.2z"/>
<path id="XMLID_10_" class="st0" d="M46.4,21.7c-0.2,0.1-0.6,0.5-0.7,0.2c0.7-0.8-0.5-1.7-1.4-1.5c0-1.2-0.7-1.4-1.8-1.4
	c-0.2-0.8-1.2-1-1.8-1c-0.2-0.1,0.1-0.6-0.1-0.8c-0.5,0.2-0.7,1.4-1.2,1.4c-1-0.8-1.4-2.4-2.4-1.7c0.1,0,0.1,0.2,0,0.2
	c-0.8-1.3-1.7-0.2-2.5-1.3c0,0.2,0,0.7-0.1,0.7c0-0.6-0.2-1-0.5-0.2c0.1,0.1,0.2,0.2,0.1,0.7c-0.5-0.1-0.6-0.7-0.8-1
	c0,0.5-0.2,0.8-0.5,0.5c0-0.2,0-0.7-0.2-0.7c0.1,1.7-0.6-0.6-1-0.2c-2.1,0.7-3.3,0.8-5,2c0.2,0,0.6,0.2,0.7,0.8c0,0,0-0.1,0-0.1
	c0.5,0.8,0.7,0.5,1,0c0.2-0.5,0.6-0.7,1,0.8c0.7-0.2,1-0.6,1.7,0c-0.1-0.8,0-1.2,0.2-1.4c0.2,0.8,1.1,0.1,1.1,1.1c0.2,0,0.3,0,0.5,0
	c0.3,0,0.5,0,0.8,0.1c0.5-0.6,1.3,0.1,2.5-0.5c0.1,0.8,1.5,0.1,1.5,1c0.5-0.6,1.2-0.2,1.7-0.5c0.6,0,0.1,0.6,0.6,0.7
	c0.7-1.2,0.6,0.1,0.8,0.5c0.7-0.6,0.8,0.6,1,0.7c0.2,0.1,1.3,0,0.8,0.7c0.6-0.5,1,0,1.5,0.1c0.2-0.2,0.7-0.7,0.8-0.6
	c0,0.7-0.1,0.9,0.2,1.3c1.2-0.2,1.4,0.6,2.2,1.2c0.2-0.1,0.4-0.1,0.6-0.1C47.2,22.7,46.6,22.3,46.4,21.7z"/>
<path id="XMLID_9_" class="st0" d="M21.4,21C20.5,20.4,22.5,21.2,21.4,21"/>
<path id="XMLID_8_" class="st0" d="M20.4,16c-0.1-0.4,0.1-0.2,0.1,0C20.6,16.2,20.5,16.1,20.4,16"/>
<path id="XMLID_7_" class="st0" d="M20,37c0,0.1-0.5,0.2-0.5,0.1C19.8,36.9,20,36.9,20,37"/>
<path id="XMLID_6_" class="st0" d="M22.5,37.8c0,0.1-0.2,0.2-0.2,0.2C22.1,37.8,22.5,37.7,22.5,37.8"/>
<path id="XMLID_5_" class="st0" d="M28,16.9c-0.1-0.1,0.1-0.5,0.1-0.2C28.3,16.8,28,17.2,28,16.9"/>
<path id="XMLID_4_" class="st0" d="M48.1,21.7c-0.3-1.3-0.9-1.1-2.4-1.4c-0.6-0.3-0.6-1.5-1.9-1.1c-0.5-0.1-0.2,0.5-0.5,0.7
	c-0.2-0.7-0.4-0.6-0.7-0.5c-0.2,0.1-0.5,0.5-1,0.3c0,0.8-0.7,1.2-1.3,1.7c-0.4,0.3-0.7,0.5-1.1,0.8c-0.2,0.4-0.6,0.7-0.8,0.9
	c0.1,0.4,0.2,0.8,0.2,1.3c0,0.2,0,0.4,0,0.6c0.4,2.1,1.4,4.1,2.9,5.5c0.5,0.3,1-0.3,1.5,0c0,0,0-0.1,0-0.1c-0.3-0.1-0.6-0.2-0.7-0.3
	l-0.6-0.8c-0.3-0.6,0.1-0.9,0-1.5c-0.1-0.5-0.2-0.3-0.4-1.1c-0.2-0.3-0.1-1.3-0.2-1.5c0.9,0.2,0.5-0.7,0.7-0.8
	c0.1-0.4-0.4-0.7-0.3-0.9c0.5-0.1,0.6-0.3,0.7-0.8c0.3,0.2,0.6,0.5,0.7,0.4c0.4-0.3,1.2-0.5,2-0.5c0.7,0,1.5,0.3,2.1,0.6
	c0.2-0.1,0.4-0.1,0.6-0.2c0.3-0.3,0.7-0.3,1-0.2c0.1,0,0.1,0,0.2,0.1c0,0,0,0,0.1,0c0.4,0,0.9,0,1.2,0.1
	C50.1,22.2,49,21.6,48.1,21.7z"/>
<path id="XMLID_3_" class="st0" d="M47.8,11.8c-2.6,0.5-4.4,2-5.9,4.2c0,0.2,0.1,0.8,0.1,1.3c0.1,0.5,0.2,0.8,0.5,1.3
	c0.2,0.8,0.6,1.5,0.1,2.2c0.6,0.1,0.6,0.6,0.7,0.8c0.1,0.2,0.2,0.5,0.8,0c0.1,0.2-0.5,0.6,0,0.8c0.8,1,1.5,0,2.2,0.1
	c0.8,0.3,1.3,0.7,1.7,0.7c0.1,0,0.2,0,0.3,0c0.2-0.1,0.4-0.2,0.7-0.4c0.7,0.6,1.8,0.7,2.5-0.1c-0.5-0.6-1-0.6-1.4-0.7
	c-0.5-0.1-0.8-0.5-0.8-1.2c-0.8,0-1.7-0.2-2.4-0.7c-0.7-0.5-1.3-1-1.4-1.5c0-0.2-0.5-0.1-0.8-0.1c0.2-0.5,0.2-0.7-0.1-1
	c0.1-0.2,0.7-0.2,0.8-0.6c-0.1-0.2,0.7-0.7-0.1-1c0.2-0.1,0.2-0.6,0.5-0.7l0.8-1.2c0.5-0.5,0.5-1,1.1-1.4l1.2-0.1
	c0.4-0.1,1.3,0.5,1.6,0c0-0.1-0.1-0.2-0.1-0.3"/>
</svg>
